<svg xmlns="http://www.w3.org/2000/svg" width="146" height="28" viewBox="0 0 146 28">
  <defs>
    <style>
      .cls-1 {
        fill: #b43232;
      }

      .cls-1, .cls-2 {
        fill-rule: evenodd;
      }

      .cls-2 {
        fill: #fff;
      }
    </style>
  </defs>
  <path id="長方形_697" data-name="長方形 697" class="cls-1" d="M10,0H136l10,13.786L136,28H10L0,13.952Z"/>
  <path id="長方形_697-2" data-name="長方形 697" class="cls-2" d="M14,0L4,13.952,14,28h2L6,14,16,0H14Z"/>
  <path id="長方形_697-3" data-name="長方形 697" class="cls-2" d="M132,0l10,13.951L132,28h-2l10-14L130,0h2Z"/>
  <path id="BEEF" class="cls-2" d="M53.24,10.392h1.953c1.04,0,2.289.176,2.289,1.521,0,1.313-1.04,1.425-2.065,1.425H53.24V10.392Zm0,4.306h2.145c1.264,0,2.353.288,2.353,1.809,0,1.441-1.088,1.729-2.273,1.729H53.24V14.7Zm2.529,5.042c2.513,0,3.617-1.585,3.617-3.233a2.373,2.373,0,0,0-1.649-2.433V14.041a2.113,2.113,0,0,0,1.393-2.049c0-2.4-2-3.105-4.034-3.105H51.591V19.74h4.178ZM65.88,10.392h4.85v-1.5h-6.5V19.74h6.691v-1.5H65.88V14.826h4.226v-1.5H65.88V10.392Zm12,0h4.85v-1.5h-6.5V19.74h6.691v-1.5H77.88V14.826h4.226v-1.5H77.88V10.392Zm12.784,0h4.05v-1.5h-5.7V19.74h1.649V14.826H93.93v-1.5H90.664V10.392Z"/>
</svg>
