<svg xmlns="http://www.w3.org/2000/svg" width="246" height="20" viewBox="0 0 246 20">
  <defs>
    <style>
      .cls-1 {
        fill: #fff;
        fill-rule: evenodd;
      }
    </style>
  </defs>
  <path id="ふるさと納税の手続き方法" class="cls-1" d="M13.647,12.193a18.62,18.62,0,0,1,2.1,3.241,1.129,1.129,0,0,0,1.04.72,1.26,1.26,0,0,0,1.28-1.2,1.219,1.219,0,0,0-.14-0.56,15.438,15.438,0,0,0-2.44-3.481,1.3,1.3,0,0,0-.96-0.44,1.142,1.142,0,0,0-1.16,1.04A1,1,0,0,0,13.647,12.193ZM0.8,14.613a1.227,1.227,0,0,0-.6,1.02,1.2,1.2,0,0,0,1.92.94,17.306,17.306,0,0,0,3.521-3.141,1.286,1.286,0,0,0,.32-0.8,1.191,1.191,0,0,0-1.22-1.1,1.261,1.261,0,0,0-.94.44A16.054,16.054,0,0,1,.8,14.613ZM8.826,1.731a1.377,1.377,0,0,0-.6-0.14,1.225,1.225,0,0,0-1.26,1.16,1.069,1.069,0,0,0,.64.92,22.566,22.566,0,0,1,3.141,2.1,1.271,1.271,0,0,0,.76.3,1.2,1.2,0,0,0,1.16-1.2,1.345,1.345,0,0,0-.54-1.04A17.972,17.972,0,0,0,8.826,1.731ZM6.886,9.092a3.707,3.707,0,0,0,1.58,2.781,3.2,3.2,0,0,1,1.34,2.521,1,1,0,0,1-1.08,1.16,5.367,5.367,0,0,1-1.12-.14,2.228,2.228,0,0,0-.34-0.04,1.067,1.067,0,0,0-1.1,1.08,1.149,1.149,0,0,0,.96,1.12,7.871,7.871,0,0,0,1.68.2,3.128,3.128,0,0,0,3.341-3.381c0-1.38-.48-2.441-2.141-3.921a1.978,1.978,0,0,1-.86-1.5,2.889,2.889,0,0,1,.3-1.22,0.884,0.884,0,0,0,.1-0.44,1.074,1.074,0,0,0-1.14-.96,1.172,1.172,0,0,0-1.04.64A4.455,4.455,0,0,0,6.886,9.092Zm21.321-.78a44.026,44.026,0,0,0,4.021-4.521,1.588,1.588,0,0,0,.36-0.94,1.3,1.3,0,0,0-1.38-1.26,1.322,1.322,0,0,0-.28.02c-1.92.3-4.041,0.56-5.661,0.64a1,1,0,0,0-.98,1.04,1.02,1.02,0,0,0,1,1.08c0.26,0,.78-0.06.86-0.06,1-.08,2.3-0.22,3.281-0.38a45.017,45.017,0,0,1-6.761,6.761,1.177,1.177,0,0,0-.5.94,1.127,1.127,0,0,0,1.12,1.1,1.386,1.386,0,0,0,.84-0.32c2.46-1.9,4.421-2.6,6.441-2.6,1.92,0,3.041,1.14,3.041,2.561a3.429,3.429,0,0,1-1.94,3.261c-0.58-2-1.92-3.281-3.841-3.281a2.491,2.491,0,0,0-2.781,2.561c0,1.78,1.74,3.181,4.481,3.181,3.9,0,6.421-2.241,6.421-5.741,0-2.781-2.04-4.481-5.161-4.481a6.911,6.911,0,0,0-2.54.5Zm1.2,7.782c-1.58,0-2.341-.52-2.341-1.18a0.732,0.732,0,0,1,.72-0.78c0.84,0,1.44.68,1.78,1.96h-0.16Zm20.921-5.441a12.937,12.937,0,0,0-2.681-.26c-3.881,0-5.541,1.6-5.541,3.761,0,2.521,2.16,4.061,6.241,4.061a18.93,18.93,0,0,0,2.281-.12,1.062,1.062,0,0,0-.08-2.121h-0.14c-0.64.06-1.28,0.1-2.1,0.1-2.981,0-3.881-.76-3.881-1.9,0-1.1.82-1.84,3.241-1.84a13.573,13.573,0,0,1,4.621.76,1.574,1.574,0,0,0,.4.08,1.118,1.118,0,0,0,1.1-1.14,1.229,1.229,0,0,0-.34-0.84,21.278,21.278,0,0,1-3.281-4.5,34.009,34.009,0,0,0,3.8-1.02,1.065,1.065,0,0,0,.82-1,1.088,1.088,0,0,0-1.08-1.08,1.111,1.111,0,0,0-.42.08,34.463,34.463,0,0,1-4.021,1.08,25.026,25.026,0,0,1-1-3.161,0.994,0.994,0,0,0-1.02-.76,1.1,1.1,0,0,0-1.18.98,1,1,0,0,0,.04.24c0.28,1.02.64,2.06,1.04,3.1a49.66,49.66,0,0,1-5.441.6,0.953,0.953,0,0,0-.96,1,1.045,1.045,0,0,0,1.04,1.1,49.532,49.532,0,0,0,6.241-.74,16.9,16.9,0,0,0,2.321,3.5Zm13.079-1.68c-2.5,1.7-3.261,3.321-3.261,4.961,0,2.7,2.1,3.981,6.3,3.981a23.128,23.128,0,0,0,4.6-.38,1.1,1.1,0,0,0,.9-1.12,1.054,1.054,0,0,0-1.08-1.1,1.231,1.231,0,0,0-.26.02,21.983,21.983,0,0,1-4.141.36c-3.181,0-4-.64-4-1.88,0-1.02.6-2.12,2.321-3.241a23.591,23.591,0,0,1,5.261-2.32,0.984,0.984,0,0,0,.74-0.98,1.089,1.089,0,0,0-1.04-1.12,1.133,1.133,0,0,0-.36.06,27.394,27.394,0,0,0-3.941,1.56,35.011,35.011,0,0,1-.46-5.861,1.163,1.163,0,0,0-2.321,0A31.868,31.868,0,0,0,63.406,8.972Zm28.982,7.121c0,0.48-.16.58-0.5,0.58a7.038,7.038,0,0,1-.9-0.06c-0.06,0-.12-0.02-0.16-0.02a0.951,0.951,0,0,0-.94,1,1.006,1.006,0,0,0,.9,1.02,7.035,7.035,0,0,0,1.24.1c1.6,0,2.4-.68,2.4-2.321V6.452c0-1.6-.68-2.26-2.52-2.26h-1.58V1.33a1.059,1.059,0,0,0-2.08,0V4.191h-1.54c-1.84,0-2.521.66-2.521,2.26V18.034a0.917,0.917,0,0,0,1.02.84,0.906,0.906,0,0,0,1.02-.84V12.893a0.9,0.9,0,0,0,.8.52,1.215,1.215,0,0,0,.96-0.6,11.267,11.267,0,0,0,1.26-2.4,19.684,19.684,0,0,1,1.32,1.94,1.087,1.087,0,0,0,.9.56,0.993,0.993,0,0,0,.92-0.58v3.761Zm-0.7-10.062c0.56,0,.7.14,0.7,0.58v4.921a1.51,1.51,0,0,0-.18-0.36,16.676,16.676,0,0,0-2.32-2.8,18.841,18.841,0,0,0,.34-2.341h1.46Zm-5.461.58c0-.44.14-0.58,0.7-0.58h1.28a10.7,10.7,0,0,1-1.82,5.7,1.994,1.994,0,0,0-.16.28v-5.4Zm-7,11.723a1.025,1.025,0,0,0,1.98,0V10.693c0.36-.06.72-0.1,1.08-0.16,0.04,0.1.06,0.22,0.1,0.32a0.785,0.785,0,0,0,.78.56,0.867,0.867,0,0,0,.9-0.82,1,1,0,0,0-.06-0.32,12.335,12.335,0,0,0-1.2-2.541,0.826,0.826,0,0,0-.72-0.42,0.815,0.815,0,0,0-.84.72,0.812,0.812,0,0,0,.1.34c0.08,0.16.16,0.32,0.26,0.48-0.52.06-1.02,0.1-1.54,0.14a41.109,41.109,0,0,0,2.66-4.421,0.812,0.812,0,0,0,.1-0.42,0.948,0.948,0,0,0-.98-0.86,0.878,0.878,0,0,0-.82.52c-0.26.54-.56,1.14-0.9,1.76-0.2-.22-0.38-0.44-0.58-0.68a20.566,20.566,0,0,0,1.58-3.2,1.133,1.133,0,0,0,.06-0.36,0.985,0.985,0,0,0-1.88-.24,17.753,17.753,0,0,1-1.08,2.441,0.961,0.961,0,0,0-.6-0.24,0.927,0.927,0,0,0-.92.9,0.9,0.9,0,0,0,.26.62,29.181,29.181,0,0,1,2.2,2.441c-0.4.64-.78,1.26-1.2,1.88-0.28,0-.54.02-0.8,0.02a0.835,0.835,0,0,0-.82.92,0.85,0.85,0,0,0,.86.94c0.64-.02,1.32-0.06,2.02-0.12v7.442Zm3.8-6.041a0.746,0.746,0,0,0-.72-0.54,0.775,0.775,0,0,0-.8.72,0.554,0.554,0,0,0,.02.18,17.787,17.787,0,0,1,.58,2.761,0.739,0.739,0,0,0,.78.64,0.777,0.777,0,0,0,.82-0.78v-0.14A16.277,16.277,0,0,0,83.026,12.293Zm-5.7.34a14.135,14.135,0,0,1-.8,3.421,1.11,1.11,0,0,0-.06.34,0.786,0.786,0,0,0,.82.76,0.859,0.859,0,0,0,.82-0.58,14.937,14.937,0,0,0,.84-3.781v-0.06a0.768,0.768,0,0,0-.82-0.74A0.746,0.746,0,0,0,77.325,12.633Zm34.182-1.38v5.521c0,1.42.681,1.8,2.581,1.8,2.14,0,2.821-.6,3.061-2.881v-0.1a0.932,0.932,0,0,0-1-.9,0.866,0.866,0,0,0-.9.78c-0.14,1.12-.38,1.24-1.02,1.24-0.54,0-.7-0.1-0.7-0.42V11.253c1.48-.04,2.32-0.38,2.32-1.98v-2.5c0-1.18-.44-2.02-2.28-2.02a18.255,18.255,0,0,0,1.28-2.821,1.133,1.133,0,0,0,.06-0.36,1.056,1.056,0,0,0-1.14-.94,1,1,0,0,0-1,.68,21.925,21.925,0,0,1-1.481,3.441h-2.22c-1.92,0-2.481.64-2.481,2.02v2.5c0,1.36.581,1.86,1.921,1.96a6.7,6.7,0,0,1-3.441,5.641,1.093,1.093,0,0,0-.62.94,1.034,1.034,0,0,0,1.02,1,1.185,1.185,0,0,0,.54-0.16,8.886,8.886,0,0,0,4.521-7.4h0.98Zm-2.06-1.8c-0.6,0-.8-0.14-0.8-0.64V7.132c0-.4.16-0.58,0.8-0.58h3.541c0.64,0,.8.18,0.8,0.58v1.68c0,0.46-.16.64-0.8,0.64h-3.541Zm-8.1,6.621v2.161a1.028,1.028,0,0,0,2.021,0V10.973c0.28,0.32.54,0.62,0.76,0.9a0.87,0.87,0,0,0,.7.36,0.923,0.923,0,0,0,.92-0.88,1.021,1.021,0,0,0-.26-0.64,11.535,11.535,0,0,0-2.12-1.94V7.452h1.52a0.845,0.845,0,0,0,.76-0.94,0.834,0.834,0,0,0-.76-0.94h-1.52V3.231c0.52-.18,1.04-0.36,1.56-0.58a0.928,0.928,0,0,0,.58-0.86,1.021,1.021,0,0,0-.96-1.06,1.261,1.261,0,0,0-.44.1,23.187,23.187,0,0,1-4.521,1.34,0.884,0.884,0,0,0-.76.92,0.909,0.909,0,0,0,.9.96c0.04,0,.1-0.02.16-0.02,0.48-.08.96-0.16,1.46-0.26v1.8h-2.08a0.833,0.833,0,0,0-.74.94,0.845,0.845,0,0,0,.76.94h1.88a21.226,21.226,0,0,1-2.74,6.1,0.967,0.967,0,0,0-.18.54,0.884,0.884,0,0,0,.88.86,0.987,0.987,0,0,0,.82-0.5,15.135,15.135,0,0,0,1.48-2.761ZM109.367,1.25a1.126,1.126,0,0,0-.92-0.46,1,1,0,0,0-1.06.9,0.923,0.923,0,0,0,.16.52c0.28,0.44.66,1.1,0.9,1.56a0.893,0.893,0,0,0,.84.54,1.121,1.121,0,0,0,1.14-1.04,1.051,1.051,0,0,0-.12-0.46A12.923,12.923,0,0,0,109.367,1.25Zm15.658,14.643c1.541,0,2.721-.58,3.821-2.521a20,20,0,0,0,2.261-8.5,4.89,4.89,0,0,1,4.821,5c0,2.481-1.14,4.2-3.981,5.221a1.152,1.152,0,0,0-.84,1.1,1.122,1.122,0,0,0,1.12,1.14,1.312,1.312,0,0,0,.46-0.08,7.493,7.493,0,0,0,5.581-7.382c0-3.981-2.82-7.042-7.7-7.042-5.5,0-9.282,3.741-9.282,8.3C121.285,14.253,122.985,15.894,125.025,15.894Zm3.741-10.882a18.1,18.1,0,0,1-2,7.3,2.021,2.021,0,0,1-1.741,1.34c-0.72,0-1.44-.68-1.44-2.52A6.337,6.337,0,0,1,128.766,5.011Zm24.2-1.14c1.66-.26,3.26-0.6,4.721-0.98a1.017,1.017,0,0,0,.84-1,1.07,1.07,0,0,0-1.06-1.08,1.994,1.994,0,0,0-.32.04,54.6,54.6,0,0,1-11.563,1.7,0.954,0.954,0,0,0-.98.98,1.018,1.018,0,0,0,1.08,1.04c1.641-.06,3.381-0.18,5.121-0.4v2.26h-6a0.9,0.9,0,0,0-.86,1,0.9,0.9,0,0,0,.86,1h6v2.241h-7.5a0.9,0.9,0,0,0-.86,1,0.9,0.9,0,0,0,.86,1h7.5v3.481a0.535,0.535,0,0,1-.62.62,5.1,5.1,0,0,1-1.08-.12,1.14,1.14,0,0,0-.26-0.02,1.02,1.02,0,0,0-1.02,1.06,1.057,1.057,0,0,0,.92,1.06,8.955,8.955,0,0,0,1.58.16c1.821,0,2.641-.74,2.641-2.541v-3.7h7.341a0.917,0.917,0,0,0,.881-1,0.917,0.917,0,0,0-.881-1h-7.341V8.432h5.881a0.916,0.916,0,0,0,.88-1,0.916,0.916,0,0,0-.88-1h-5.881V3.871Zm19,7.382a1.02,1.02,0,0,0,2,0v-0.86c0-.38.16-0.48,0.64-0.48h5.481c0.48,0,.64.1,0.64,0.48v0.78a1.015,1.015,0,0,0,2,0v-1.02c0-1.26-.44-2-2.18-2h-6.381c-1.761,0-2.2.74-2.2,2v0.26a1.243,1.243,0,0,0-.06-0.2,13.211,13.211,0,0,0-1.16-2.481,0.826,0.826,0,0,0-.72-0.42,0.814,0.814,0,0,0-.84.72,0.812,0.812,0,0,0,.1.34c0.08,0.16.18,0.32,0.26,0.5-0.521.06-1.021,0.1-1.541,0.14a41.6,41.6,0,0,0,2.681-4.441,0.812,0.812,0,0,0,.1-0.42,0.97,0.97,0,0,0-1-.88,0.854,0.854,0,0,0-.8.52c-0.26.54-.56,1.14-0.9,1.78-0.18-.22-0.36-0.46-0.56-0.66a22.8,22.8,0,0,0,1.561-3.241,1.133,1.133,0,0,0,.06-0.36,0.9,0.9,0,0,0-.961-0.84,0.933,0.933,0,0,0-.9.62,20.535,20.535,0,0,1-1.08,2.441,0.893,0.893,0,0,0-.6-0.24,0.941,0.941,0,0,0-.92.9,0.853,0.853,0,0,0,.26.6,32.527,32.527,0,0,1,2.18,2.441c-0.38.64-.78,1.28-1.2,1.9-0.26,0-.52.02-0.78,0.02a0.848,0.848,0,0,0-.821.92,0.867,0.867,0,0,0,.881.94c0.64-.02,1.3-0.06,2-0.12v7.462a1.006,1.006,0,0,0,1.941,0V10.673c0.36-.04.7-0.1,1.06-0.14,0.04,0.1.06,0.22,0.1,0.32a0.785,0.785,0,0,0,.78.56,0.9,0.9,0,0,0,.88-0.64v0.48Zm4.161-5.8h-2.521a0.834,0.834,0,0,0-.84.9,0.844,0.844,0,0,0,.84.9h7.662a0.844,0.844,0,0,0,.84-0.9,0.834,0.834,0,0,0-.84-0.9h-3.061V4.291h3.981a0.844,0.844,0,0,0,.84-0.9,0.834,0.834,0,0,0-.84-0.9h-3.981V1.21a1.055,1.055,0,0,0-2.08,0v1.28h-3.561a0.834,0.834,0,0,0-.84.9,0.844,0.844,0,0,0,.84.9h3.561v1.16Zm-5.161,6.821a0.735,0.735,0,0,0-.72-0.52,0.757,0.757,0,0,0-.8.68,0.711,0.711,0,0,0,.04.2,15.519,15.519,0,0,1,.52,2.581,0.739,0.739,0,0,0,.78.64,0.777,0.777,0,0,0,.82-0.78v-0.14A14.294,14.294,0,0,0,170.966,12.273Zm-5.661.36a15.481,15.481,0,0,1-.78,3.421,1.186,1.186,0,0,0-.08.34,0.787,0.787,0,0,0,.84.74,0.833,0.833,0,0,0,.8-0.56,14.488,14.488,0,0,0,.82-3.861A0.808,0.808,0,0,0,165.305,12.633Zm14.263-.98a0.9,0.9,0,0,0-1.02-.82,0.915,0.915,0,0,0-1.021.82v5.161c0,1.24.4,1.76,2.7,1.76,2.18,0,2.78-.92,2.981-3.081v-0.1a0.912,0.912,0,0,0-1-.84,0.867,0.867,0,0,0-.94.78c-0.12,1.2-.28,1.38-1.06,1.38-0.54,0-.64-0.1-0.64-0.44V11.653Zm-4.961.06a5.718,5.718,0,0,1-3.321,5.141,1.021,1.021,0,0,0,.4,1.96,1.3,1.3,0,0,0,.52-0.12,7.41,7.41,0,0,0,3.681-3.761,9.114,9.114,0,0,0,.76-3.181,0.941,0.941,0,0,0-1.04-.88A0.918,0.918,0,0,0,174.607,11.713Zm21.66,0.02a10.237,10.237,0,0,0-2.72-.32c-3.721,0-5.442,1.4-5.442,3.461,0,2.32,1.881,3.641,6.1,3.641a20.482,20.482,0,0,0,2.14-.1,1.028,1.028,0,0,0,1-1.02,0.986,0.986,0,0,0-1.06-1.02c-0.08,0-.26.02-0.38,0.02-0.6.04-.9,0.06-1.72,0.06-2.921,0-3.781-.66-3.781-1.62,0-.84.7-1.56,3.161-1.56a12.6,12.6,0,0,1,4.341.78,1.7,1.7,0,0,0,.52.1,1.064,1.064,0,0,0,1.1-1.06,1.228,1.228,0,0,0-.3-0.82,25.064,25.064,0,0,1-2.321-3.241,32.48,32.48,0,0,0,3.481-.88,0.947,0.947,0,0,0,.74-0.9,1.058,1.058,0,0,0-1.02-1.06,1,1,0,0,0-.32.06,37.826,37.826,0,0,1-3.861.94c-0.28-.62-0.56-1.26-0.8-1.9,1.3-.26,2.5-0.56,3.5-0.86a0.873,0.873,0,0,0,.68-0.86,1.019,1.019,0,0,0-1-1.02,1.132,1.132,0,0,0-.36.06,30.3,30.3,0,0,1-3.461.8c-0.2-.68-0.4-1.38-0.58-2.06a1.116,1.116,0,0,0-2.141.14,1.171,1.171,0,0,0,.04.26c0.16,0.66.36,1.34,0.58,2.02-1.3.2-2.6,0.34-3.68,0.4a0.888,0.888,0,0,0-.861.96,0.958,0.958,0,0,0,.941,1.02c0.16,0,.34-0.02.4-0.02a38.6,38.6,0,0,0,3.88-.48c0.241,0.64.521,1.28,0.821,1.92-1.781.26-3.6,0.48-5.341,0.56a0.928,0.928,0,0,0-.921.98,0.972,0.972,0,0,0,.961,1.02c0.1,0,.46-0.02.74-0.04,1.52-.12,3.5-0.32,5.481-0.66,0.52,0.86,1.04,1.64,1.48,2.261Zm16.579-7.982h-6.821a0.913,0.913,0,0,0-.86,1,0.913,0.913,0,0,0,.86,1h6.141a14.014,14.014,0,0,1-2.92,8.322,12.435,12.435,0,0,1-3.121,2.581,1.133,1.133,0,0,0-.64.98,1.109,1.109,0,0,0,1.1,1.1,1.308,1.308,0,0,0,.66-0.2,13.79,13.79,0,0,0,6.5-8.6h4.02c0.481,0,.641.14,0.641,0.54a22.637,22.637,0,0,1-.641,4.6,1.39,1.39,0,0,1-1.48,1.28,6.767,6.767,0,0,1-1.54-.2,1.569,1.569,0,0,0-.28-0.04,1.046,1.046,0,0,0-1.04,1.1,1.066,1.066,0,0,0,.88,1.04,8.844,8.844,0,0,0,2.08.22c1.921,0,3-.8,3.5-2.9a27,27,0,0,0,.72-5.421c0-1.58-.88-2.181-2.8-2.181h-3.621a20.982,20.982,0,0,0,.26-2.22h7.661a0.916,0.916,0,0,0,.881-1,0.916,0.916,0,0,0-.881-1h-7.061V1.13a0.975,0.975,0,0,0-1.1-.9,0.987,0.987,0,0,0-1.1.9V3.751Zm26.741,0.42V1.33a1.087,1.087,0,0,0-2.16,0V4.171h-3.321a0.889,0.889,0,0,0-.86.96,0.889,0.889,0,0,0,.86.96h3.321V8.972h-4.5a0.889,0.889,0,0,0-.86.96,0.889,0.889,0,0,0,.86.96h3.4a28.389,28.389,0,0,1-1.1,2.821c-0.341.76-.741,1.52-1.121,2.26-0.38.04-.74,0.08-1.1,0.1a0.994,0.994,0,0,0-.96,1.02,1.033,1.033,0,0,0,1.08,1.06h0.14a67.052,67.052,0,0,0,8.722-1.38c0.22,0.32.4,0.62,0.58,0.9a1.2,1.2,0,0,0,1.02.6,1.166,1.166,0,0,0,1.181-1.08,1.089,1.089,0,0,0-.22-0.66,36.418,36.418,0,0,0-3.041-3.781,1.227,1.227,0,0,0-.88-0.4,1.038,1.038,0,0,0-1.061.96,1.017,1.017,0,0,0,.261.64c0.3,0.36.62,0.76,0.94,1.16-1.381.24-2.781,0.42-4.161,0.6a38.987,38.987,0,0,0,2.02-4.821h5.841a0.877,0.877,0,0,0,.861-0.96,0.877,0.877,0,0,0-.861-0.96h-4.881V6.091h3.6a0.877,0.877,0,0,0,.86-0.96,0.877,0.877,0,0,0-.86-0.96h-3.6Zm-9.722,7.662a23.78,23.78,0,0,1-2.26,4.981,1.176,1.176,0,0,0-.22.66,1.055,1.055,0,0,0,1.12.98,1.249,1.249,0,0,0,1.08-.62,24.751,24.751,0,0,0,2.421-5.341,1.026,1.026,0,0,0-1.12-1.36A1,1,0,0,0,229.865,11.833Zm0.3-10.822a1.231,1.231,0,0,0-.7-0.24,1.084,1.084,0,0,0-1.12.98,0.992,0.992,0,0,0,.4.74,21.708,21.708,0,0,1,1.62,1.52,1.077,1.077,0,0,0,.781.38,1.1,1.1,0,0,0,1.08-1.06,1.175,1.175,0,0,0-.34-0.8A11.238,11.238,0,0,0,230.165,1.01Zm-1.54,4.761a1.246,1.246,0,0,0-.7-0.22,1.086,1.086,0,0,0-1.12,1,0.964,0.964,0,0,0,.42.76,19.2,19.2,0,0,1,1.68,1.56,1.023,1.023,0,0,0,.76.34,1.124,1.124,0,0,0,1.121-1.08,1.212,1.212,0,0,0-.34-0.8A10.466,10.466,0,0,0,228.625,5.771Z"/>
</svg>
