<svg xmlns="http://www.w3.org/2000/svg" width="151" height="20" viewBox="0 0 151 20">
  <defs>
    <style>
      .cls-1 {
        fill: #fff;
        fill-rule: evenodd;
      }
    </style>
  </defs>
  <path id="寄附金の使い道" class="cls-1" d="M13.967,10.172a0.888,0.888,0,0,0,.48-0.78,1.072,1.072,0,0,0-.68-0.94,20.56,20.56,0,0,0-3.941-1.48l0.12-.24h4.5a0.778,0.778,0,0,0,.76-0.84,0.778,0.778,0,0,0-.76-0.84H10.487a2.614,2.614,0,0,0,.06-0.46,0.871,0.871,0,0,0-.76-0.8h5.521c0.48,0,.64.16,0.64,0.52v1.08a0.97,0.97,0,0,0,1.1.82,0.959,0.959,0,0,0,1.1-.82V3.971c0-1.28-.62-1.84-2.44-1.84H10.667V0.99A0.937,0.937,0,0,0,9.586.17a0.946,0.946,0,0,0-1.1.82v1.14H3.545c-1.82,0-2.461.56-2.461,1.84v1.48a0.97,0.97,0,0,0,1.1.82,0.959,0.959,0,0,0,1.1-.82V4.311c0-.36.16-0.52,0.66-0.52H9.126a0.811,0.811,0,0,0-.64.72,5.027,5.027,0,0,1-.08.54h-3.7a0.775,0.775,0,0,0-.74.84,0.775,0.775,0,0,0,.74.84h3c-0.72.94-1.94,1.48-3.841,1.82a0.871,0.871,0,0,0-.8.84,0.837,0.837,0,0,0,.52.78H1.045a0.83,0.83,0,0,0-.82.9,0.841,0.841,0,0,0,.82.9H13.167v4.641c0,0.38-.12.5-0.46,0.5a6.075,6.075,0,0,1-.9-0.08,0.554,0.554,0,0,0-.18-0.02,0.989,0.989,0,0,0-.96,1.04,0.927,0.927,0,0,0,.8.96,9.368,9.368,0,0,0,1.34.1c1.74,0,2.56-.64,2.56-2.14v-5h2.841a0.829,0.829,0,0,0,.82-0.9,0.818,0.818,0,0,0-.82-0.9H13.967Zm-9.462,0a9.089,9.089,0,0,0,4.221-1.88,29.491,29.491,0,0,1,4.061,1.76l0.24,0.12H4.505Zm3.761,7.3c1.22,0,2.02-.32,2.02-1.68v-1.24c0-1.18-.6-1.68-2.02-1.68H5.305c-1.42,0-2.02.5-2.02,1.68v1.24c0,1.18.6,1.68,2.02,1.68H8.266Zm-2.5-1.48c-0.32,0-.48-0.06-0.48-0.4v-0.84c0-.3.1-0.4,0.48-0.4h2.04c0.38,0,.48.1,0.48,0.4v0.84c0,0.3-.1.4-0.48,0.4H5.766ZM30.486,9.472v8.762a0.9,0.9,0,0,0,1.02.8,0.89,0.89,0,0,0,1.02-.8V7.932a0.874,0.874,0,0,0-.86-0.82,31.464,31.464,0,0,0,1.8-5.381,1,1,0,0,0,.04-0.24,1.054,1.054,0,0,0-1.14-.94,0.959,0.959,0,0,0-1,.76,25.473,25.473,0,0,1-2.68,7.282,1.141,1.141,0,0,0-.18.62,0.965,0.965,0,0,0,.98.96,1.041,1.041,0,0,0,.96-0.62Zm6.6-1.74v8.582c0,0.38-.12.48-0.38,0.48a6.968,6.968,0,0,1-.72-0.06c-0.06,0-.12-0.02-0.18-0.02a1,1,0,0,0-1,1.06,0.978,0.978,0,0,0,.84.98,7.727,7.727,0,0,0,1.22.1c1.4,0,2.34-.52,2.34-2.36V7.732h1.14a0.854,0.854,0,0,0,.78-0.96,0.854,0.854,0,0,0-.78-0.96h-1.14V1.39a0.918,0.918,0,0,0-1.06-.82,0.929,0.929,0,0,0-1.06.82V5.811H33.827a0.869,0.869,0,0,0-.8.96,0.869,0.869,0,0,0,.8.96h3.261ZM24.985,0.67c-1.46,0-2.02.56-2.02,1.94V18.274a0.922,0.922,0,0,0,1.04.8,0.922,0.922,0,0,0,1.04-.8V13.913a0.763,0.763,0,0,0,.56.38,2.9,2.9,0,0,0,.6.06c1.44,0,2.4-.74,2.4-3a6.238,6.238,0,0,0-1.64-4.2,25.993,25.993,0,0,0,1.38-3.881,3.7,3.7,0,0,0,.12-0.88c0-1.1-.68-1.72-2.02-1.72h-1.46Zm1.08,1.92c0.22,0,.32.06,0.32,0.24a0.751,0.751,0,0,1-.02.2,18.7,18.7,0,0,1-1.14,3.481,3.894,3.894,0,0,0-.18.5v-4c0-.32.08-0.42,0.36-0.42h0.66Zm-1.02,5.041a1.759,1.759,0,0,0,.32.6,5.077,5.077,0,0,1,1.16,3.121c0,0.86-.16,1.06-0.48,1.06a1.848,1.848,0,0,1-.3-0.02h-0.08a0.683,0.683,0,0,0-.62.4V7.632Zm10,2.06a1.017,1.017,0,0,0-.78-0.36,1,1,0,0,0-1.04.92,1.11,1.11,0,0,0,.24.64c0.4,0.52.76,1.06,1.06,1.54a0.977,0.977,0,0,0,.86.5,1.041,1.041,0,0,0,1.04-1.02,1.275,1.275,0,0,0-.18-0.6A14.068,14.068,0,0,0,35.047,9.692Zm19.62-8.3a0.707,0.707,0,0,0,.08-0.34,1.03,1.03,0,0,0-1.1-.92,1.2,1.2,0,0,0-1,.5,26.469,26.469,0,0,1-7.882,6.981,1.12,1.12,0,0,0-.62.96,1.046,1.046,0,0,0,1.02,1.06,1.11,1.11,0,0,0,.58-0.16,31.274,31.274,0,0,0,7.742-6.481,27.036,27.036,0,0,0,7.8,6.161,1.583,1.583,0,0,0,.7.18,1.092,1.092,0,0,0,1.08-1.1,1.17,1.17,0,0,0-.74-1.08A23.727,23.727,0,0,1,54.667,1.39Zm0,7.162h2.02a0.807,0.807,0,0,0,.76-0.9,0.8,0.8,0,0,0-.76-0.9h-6.3a0.809,0.809,0,0,0-.76.9,0.82,0.82,0,0,0,.76.9h2.08v1.86H46.9a0.809,0.809,0,0,0-.76.9,0.82,0.82,0,0,0,.76.9h5.561v4.241h-6.8a0.829,0.829,0,0,0-.78.92,0.829,0.829,0,0,0,.78.92H61.548a0.829,0.829,0,0,0,.78-0.92,0.829,0.829,0,0,0-.78-0.92H54.667V12.213h5.7a0.807,0.807,0,0,0,.76-0.9,0.8,0.8,0,0,0-.76-0.9h-5.7V8.552Zm-4.641,4.581a1.048,1.048,0,0,0-.84-0.42,1,1,0,0,0-1.02.94,0.967,0.967,0,0,0,.18.54c0.36,0.5.6,0.88,0.92,1.38a1,1,0,0,0,.86.48,1.056,1.056,0,0,0,1.08-.96,0.938,0.938,0,0,0-.16-0.54A10.206,10.206,0,0,0,50.026,13.133Zm6.081,1.44a1.111,1.111,0,0,0-.24.64,0.951,0.951,0,0,0,.98.88,1.011,1.011,0,0,0,.8-0.4,12,12,0,0,0,1.12-1.66,1.113,1.113,0,0,0,.16-0.52,0.954,0.954,0,0,0-.98-0.9,1,1,0,0,0-.9.56A9.521,9.521,0,0,1,56.107,14.573Zm14.738,1.32c1.54,0,2.721-.58,3.821-2.521a20.015,20.015,0,0,0,2.261-8.5,4.89,4.89,0,0,1,4.821,5c0,2.481-1.14,4.2-3.981,5.221a1.152,1.152,0,0,0-.84,1.1,1.122,1.122,0,0,0,1.12,1.14,1.313,1.313,0,0,0,.46-0.08,7.493,7.493,0,0,0,5.581-7.382c0-3.981-2.821-7.042-7.7-7.042-5.5,0-9.282,3.741-9.282,8.3C67.1,14.253,68.8,15.894,70.845,15.894ZM74.586,5.011a18.1,18.1,0,0,1-2,7.3,2.021,2.021,0,0,1-1.74,1.34c-0.72,0-1.44-.68-1.44-2.52A6.337,6.337,0,0,1,74.586,5.011Zm26.361,1.06V4.751h5a0.871,0.871,0,0,0,.82-0.96,0.871,0.871,0,0,0-.82-0.96h-5V1.25a0.948,0.948,0,0,0-1.06-.88,0.959,0.959,0,0,0-1.06.88v1.58H94.586a0.856,0.856,0,0,0-.8.96,0.856,0.856,0,0,0,.8.96h4.241v1.32h-2.34c-1.44,0-2.1.54-2.1,1.94v1.6c0,1.4.58,1.98,2.221,1.98h1.92a8.566,8.566,0,0,1-.78,2.06,10.269,10.269,0,0,1-1.06-1.02,1.076,1.076,0,0,0-.82-0.4,1.031,1.031,0,0,0-1.04.94,0.961,0.961,0,0,0,.24.6,11.912,11.912,0,0,0,1.44,1.4,8.686,8.686,0,0,1-2.561,1.52,0.984,0.984,0,0,0,.3,1.92,1.363,1.363,0,0,0,.46-0.1,10.464,10.464,0,0,0,3.421-2.24,15.787,15.787,0,0,0,6.822,1.98c0.36,0.02.68,0.04,0.76,0.04a1.065,1.065,0,0,0,1.04-1.08,1.02,1.02,0,0,0-1.04-1.06,14.84,14.84,0,0,1-6.341-1.44,10.335,10.335,0,0,0,1.26-3.121h2.68c1.461,0,2.221-.4,2.221-1.98v-1.6c0-1.4-.66-1.94-2.1-1.94h-2.48Zm-2.121,1.76v0.62q0,0.69-.06,1.38h-1.68c-0.4,0-.62-0.02-0.62-0.48V8.312c0-.4.12-0.48,0.62-0.48h1.74Zm2.121,0h1.88c0.5,0,.62.08,0.62,0.48v1.04c0,0.4-.12.48-0.62,0.48h-1.94c0.04-.42.06-0.84,0.06-1.28V7.832Zm-10.422,10.4a1.129,1.129,0,0,0,2.16,0V7.612a0.876,0.876,0,0,0-.88-0.8,30.711,30.711,0,0,0,1.76-5.021,1.545,1.545,0,0,0,.04-0.3,1.055,1.055,0,0,0-1.16-1,1.038,1.038,0,0,0-1.08.76,24.353,24.353,0,0,1-3.1,7.6,1.188,1.188,0,0,0-.22.68,1.043,1.043,0,0,0,1.06,1,1.139,1.139,0,0,0,.98-0.56c0.14-.22.3-0.44,0.44-0.68v8.942Zm21.32-14.383c-0.04.52-.08,1.12-0.08,2.04,0,7.6,1.76,11.182,4.661,11.182,1.34,0,2.62-.98,3.36-3.661a0.992,0.992,0,0,0,.04-0.34,1.1,1.1,0,0,0-1.14-1.08,1.041,1.041,0,0,0-1.02.86c-0.38,1.5-.82,1.82-1.3,1.82-0.84,0-2.261-1.84-2.261-8.842,0-.62.08-1.6,0.08-1.88a1.083,1.083,0,0,0-1.18-1.06A1.1,1.1,0,0,0,111.845,3.851Zm12.362,1.42a1.32,1.32,0,0,0-.88-0.38,1.107,1.107,0,0,0-1.14,1.02,1.047,1.047,0,0,0,.34.74,17.691,17.691,0,0,1,3.461,5.441,1.1,1.1,0,0,0,1.06.76,1.079,1.079,0,0,0,1.12-1.06,1.186,1.186,0,0,0-.08-0.42A15.78,15.78,0,0,0,124.207,5.271Zm17.579,0.38c-1.76,0-2.44.66-2.44,2.08v5.381c0,1.42.68,2.08,2.44,2.08h4.861c1.521,0,2.441-.42,2.441-2.08V7.732c0-1.42-.68-2.08-2.441-2.08h-1.98c0.16-.36.28-0.72,0.4-1.08h5.061a0.785,0.785,0,0,0,.72-0.88,0.785,0.785,0,0,0-.72-0.88h-3.04a12.492,12.492,0,0,0,.7-1.36,0.762,0.762,0,0,0,.08-0.34,1.013,1.013,0,0,0-1.1-.88,0.964,0.964,0,0,0-.96.62,17.634,17.634,0,0,1-.94,1.96h-1.82a0.906,0.906,0,0,0,.28-0.64,1.112,1.112,0,0,0-.16-0.52,6.666,6.666,0,0,0-.8-1.02,1.037,1.037,0,0,0-.781-0.34,0.96,0.96,0,0,0-1.02.82,0.845,0.845,0,0,0,.18.48,9.957,9.957,0,0,1,.64.94,1.051,1.051,0,0,0,.22.28h-2.72a0.785,0.785,0,0,0-.72.88,0.785,0.785,0,0,0,.72.88h4.081c-0.1.36-.24,0.72-0.38,1.08h-0.8Zm0.22,7.862c-0.38,0-.62-0.06-0.62-0.5v-0.54h5.662v0.54c0,0.38-.14.5-0.621,0.5h-4.421Zm-0.62-3.641h5.662v1.02h-5.662V9.872Zm5.662-1.56h-5.662V7.792c0-.38.14-0.5,0.62-0.5h4.421c0.481,0,.621.12,0.621,0.5v0.52Zm-9.843,2.761c0-1.54-.62-2.241-2.28-2.241h-1.62a0.91,0.91,0,0,0-.881.98,0.916,0.916,0,0,0,.881,1h1.14c0.52,0,.62.14,0.62,0.52v3.321a13.371,13.371,0,0,1-2.3,1.96,1.179,1.179,0,0,0-.58.94,1.085,1.085,0,0,0,1.081,1.06,1.174,1.174,0,0,0,.68-0.24,14.253,14.253,0,0,0,2.34-2.14c1.5,1.5,3.661,2.12,8.4,2.12,2.12,0,3.741-.06,5.381-0.16a1,1,0,0,0,.96-1.06,0.959,0.959,0,0,0-.98-1.04h-0.12c-1.54.14-3.2,0.2-5.261,0.2-4.361,0-6.241-.46-7.462-1.72v-3.5Zm-2-9.482a1.337,1.337,0,0,0-.76-0.26,1.121,1.121,0,0,0-1.12,1.06,1.032,1.032,0,0,0,.4.78,12.718,12.718,0,0,1,1.58,1.54,1.21,1.21,0,0,0,.92.46,1.149,1.149,0,0,0,1.14-1.12,1.175,1.175,0,0,0-.34-0.8A10.4,10.4,0,0,0,135.205,1.591Z"/>
</svg>
