<svg xmlns="http://www.w3.org/2000/svg" width="20" height="20" viewBox="0 0 20 20">
  <defs>
    <style>
      .cls-1 {
        fill: #fff;
        fill-rule: evenodd;
      }
    </style>
  </defs>
  <path id="シェイプ_952" data-name="シェイプ 952" class="cls-1" d="M17.234,19.333c-0.064,0-.134,0-0.2-0.01a18.367,18.367,0,0,1-7.989-2.846A18.148,18.148,0,0,1,3.5,10.92,18.431,18.431,0,0,1,.661,2.894,2.452,2.452,0,0,1,2.879.218c0.073-.007.146-0.01,0.219-0.01h2.7A2.456,2.456,0,0,1,8.213,2.32,10.87,10.87,0,0,0,8.8,4.687,2.464,2.464,0,0,1,8.25,7.275l-0.767.768a13.613,13.613,0,0,0,4.4,4.408l0.765-.766a2.452,2.452,0,0,1,2.587-.554,10.734,10.734,0,0,0,2.355.587A2.455,2.455,0,0,1,19.7,14.2v2.67a2.451,2.451,0,0,1-2.44,2.461H17.234ZM5.788,1.547H5.777L3,1.552A1.114,1.114,0,0,0,1.991,2.763,17.085,17.085,0,0,0,4.621,10.2a16.83,16.83,0,0,0,5.142,5.154,17.024,17.024,0,0,0,7.4,2.639,0.8,0.8,0,0,0,.084,0,1.113,1.113,0,0,0,1.117-1.12v-2.7a1.116,1.116,0,0,0-.958-1.133,12.093,12.093,0,0,1-2.643-.659,1.115,1.115,0,0,0-1.176.249L12.46,13.766a0.668,0.668,0,0,1-.8.109A14.95,14.95,0,0,1,6.063,8.268a0.67,0.67,0,0,1,.108-0.8L7.3,6.331A1.119,1.119,0,0,0,7.55,5.156,12.222,12.222,0,0,1,6.889,2.5,1.115,1.115,0,0,0,5.788,1.547Z"/>
</svg>
