<svg xmlns="http://www.w3.org/2000/svg" width="48" height="32"><path d="M32 16a8 8 0 0 0-8 8 8 8 0 0 0 8-7 8 8 0 0 1 0-1m-8-8a8 8 0 0 0 8 8 8 8 0 0 1 0-1 8 8 0 0 0-8-7m-8 8a8 8 0 0 0 8 8 8 8 0 0 0-8-8m8-8a8 8 0 0 0-8 8 8 8 0 0 0 8-8m-8 8a8 8 0 0 0-8 8 8 8 0 0 0 8-8M8 8a8 8 0 0 0 8 8 8 8 0 0 0-8-8m-8 8a8 8 0 0 0 8 8 8 8 0 0 0-8-8m8-8a8 8 0 0 0-8 8 8 8 0 0 0 8-8m40 8a8 8 0 0 0-8 8 8 8 0 0 0 8-8m-8-8a8 8 0 0 0 8 8 8 8 0 0 0-8-8m-8 8a8 8 0 0 0 8 8 8 8 0 0 0-8-8m0-16a8 8 0 0 0-8 8 8 8 0 0 0 8-7 8 8 0 0 1 0-1M16 0a8 8 0 0 0 8 8 8 8 0 0 0-8-8m0 0a8 8 0 0 0-8 8 8 8 0 0 0 8-8m16 0a8 8 0 0 0 0 1 8 8 0 0 0 8 7 8 8 0 0 0-8-8m8 8a8 8 0 0 0-8 8 8 8 0 0 0 8-8M24 24a8 8 0 0 0 8 8 8 8 0 0 1 0-1 8 8 0 0 0-8-7m0 0a8 8 0 0 0-8 8 8 8 0 0 0 8-8M8 24a8 8 0 0 0 8 8 8 8 0 0 0-8-8m32 0a8 8 0 0 0-8 8 8 8 0 0 0 8-8" fill="#b43232" fill-rule="evenodd"/></svg>