<svg xmlns="http://www.w3.org/2000/svg" width="20" height="16" viewBox="0 0 20 16">
  <defs>
    <style>
      .cls-1 {
        fill: #fff;
        fill-rule: evenodd;
      }
    </style>
  </defs>
  <path id="シェイプ_950" data-name="シェイプ 950" class="cls-1" d="M18,0H2A2.006,2.006,0,0,0,0,2V14a2.006,2.006,0,0,0,2,2H18a2.006,2.006,0,0,0,2-2V2A2.006,2.006,0,0,0,18,0Zm0.5,14a0.507,0.507,0,0,1-.5.5H2A0.507,0.507,0,0,1,1.5,14V3.965L9.57,9.614a0.75,0.75,0,0,0,.86,0L18.5,3.965V14Zm0-11.865L10,8.085,1.5,2.135V2A0.507,0.507,0,0,1,2,1.5H18a0.507,0.507,0,0,1,.5.5V2.135Z"/>
</svg>
