<svg xmlns="http://www.w3.org/2000/svg" width="146" height="28" viewBox="0 0 146 28">
  <defs>
    <style>
      .cls-1 {
        fill: #3c3c96;
      }

      .cls-1, .cls-2 {
        fill-rule: evenodd;
      }

      .cls-2 {
        fill: #fff;
      }
    </style>
  </defs>
  <path id="長方形_697" data-name="長方形 697" class="cls-1" d="M10,0H136l10,13.786L136,28H10L0,13.952Z"/>
  <path id="長方形_697-2" data-name="長方形 697" class="cls-2" d="M14,0L4,13.952,14,28h2L6,14,16,0H14Z"/>
  <path id="長方形_697-3" data-name="長方形 697" class="cls-2" d="M132,0l10,13.951L132,28h-2l10-14L130,0h2Z"/>
  <path id="SHOCHU" class="cls-2" d="M43.3,19.884a3.167,3.167,0,0,0,3.441-3.025c0-1.841-1.265-2.609-2.737-3.313l-0.96-.448A1.728,1.728,0,0,1,41.8,11.608a1.4,1.4,0,0,1,1.665-1.361,1.322,1.322,0,0,1,1.521,1.377h1.649V11.416c0-1.633-1.649-2.673-3.137-2.673a3.09,3.09,0,0,0-3.345,3.009c0,1.617,1.249,2.3,2.481,2.9,1.233,0.576,2.465,1.04,2.465,2.225a1.562,1.562,0,0,1-1.793,1.5,1.619,1.619,0,0,1-1.761-1.649H39.9v0.336C39.9,18.859,41.672,19.884,43.3,19.884Zm13.825-5.026V19.74h1.649V8.887H57.129v4.466H53.512V8.887H51.863V19.74h1.649V14.858h3.617ZM67.321,8.743c-2.753,0-3.842,3.361-3.842,5.554,0,2.385,1.072,5.586,3.842,5.586s3.842-3.2,3.842-5.586C71.162,12.1,70.074,8.743,67.321,8.743Zm0,1.5c1.9,0,2.193,2.737,2.193,4.13,0,1.361-.32,4-2.193,4-1.889,0-2.193-2.641-2.193-4C65.128,12.985,65.4,10.248,67.321,10.248Zm15.393,1.088a2.747,2.747,0,0,0-2.929-2.593c-2.929,0-3.73,3.105-3.73,5.6,0,2.369.8,5.538,3.73,5.538a2.781,2.781,0,0,0,2.929-2.689H81.065a1.3,1.3,0,0,1-1.345,1.185c-1.777,0-2.017-2.817-2.017-4.114,0-1.28.272-4.018,2.017-4.018a1.263,1.263,0,0,1,1.345,1.088h1.649Zm10.415,3.521V19.74h1.649V8.887H93.129v4.466H89.512V8.887H87.863V19.74h1.649V14.858h3.617Zm6.526-5.97v7.219c0,2.353,1.12,3.778,3.665,3.778,2.529,0,3.666-1.425,3.666-3.777V8.887h-1.649v7.107c0,1.521-.368,2.385-2.017,2.385s-2.016-.864-2.016-2.385V8.887H99.655Z"/>
</svg>
