<svg xmlns="http://www.w3.org/2000/svg" width="305" height="33" viewBox="0 0 305 33">
  <defs>
    <style>
      .cls-1 {
        fill: #5a4646;
        fill-rule: evenodd;
      }
    </style>
  </defs>
  <path id="魅力的な特産品一覧" class="cls-1" d="M5.384,4.368c-2.72,0-3.774,1.122-3.774,3.5v5.779c0,2.346,1.054,3.5,3.774,3.5h6.663c2.516,0,3.774-.918,3.774-3.5V7.87c0-2.38-1.054-3.5-3.774-3.5H9.463c0.238-.578.442-1.224,0.646-1.9a2.667,2.667,0,0,0,.068-0.476A1.544,1.544,0,0,0,8.511.527,1.72,1.72,0,0,0,6.778,1.853C6.54,2.839,6.3,3.62,6.064,4.368H5.384ZM5.622,14.3c-0.51,0-.782-0.1-0.782-0.68V11.984h2.38V14.3h-1.6ZM4.84,9.366V7.8c0-.476.17-0.646,0.782-0.646h1.6v2.21H4.84Zm5.337-2.21h1.632c0.612,0,.782.17,0.782,0.646V9.366H10.177V7.156Zm2.414,4.827v1.632c0,0.51-.17.68-0.782,0.68H10.177V11.984h2.414Zm-1.122,7.309a1.491,1.491,0,0,0-1.632-1.462,1.491,1.491,0,0,0-1.632,1.462v8.023c0,3.536,1.02,4.182,11.015,4.182,7.921,0,10.879-.476,12.137-1.938a6.173,6.173,0,0,0,1.224-3.774,1.616,1.616,0,0,0-1.768-1.6,1.642,1.642,0,0,0-1.734,1.5c-0.238,2.346-.952,2.754-9.927,2.754-7.445,0-7.683-.238-7.683-1.36V27.01a1.409,1.409,0,0,0,.544.1h0.2a28.79,28.79,0,0,0,4.182-.884l0.034,0.1a1.094,1.094,0,0,0,1.088.85,1.065,1.065,0,0,0,1.088-1.054,1.239,1.239,0,0,0-.068-0.476,26.643,26.643,0,0,0-1.326-3.366,1.32,1.32,0,0,0-1.156-.782,0.961,0.961,0,0,0-1.02.918,1.166,1.166,0,0,0,.136.544c0.136,0.374.306,0.782,0.476,1.19-0.476.1-.952,0.2-1.462,0.272,0.374-1.6.646-2.992,0.85-4.42,0-.068.034-0.17,0.034-0.238a1.1,1.1,0,0,0-1.156-1.122,1.235,1.235,0,0,0-1.224,1.122,39.951,39.951,0,0,1-.85,4.964,1.205,1.205,0,0,0-.374.1V19.293Zm19.65-5a1.393,1.393,0,0,0,1.292-1.53,1.374,1.374,0,0,0-1.292-1.53H25.986V8.38h3.978a1.393,1.393,0,0,0,1.292-1.53,1.374,1.374,0,0,0-1.292-1.53H25.986V1.853a1.5,1.5,0,0,0-1.7-1.326,1.5,1.5,0,0,0-1.7,1.326V5.32H19.152A1.374,1.374,0,0,0,17.86,6.85a1.393,1.393,0,0,0,1.292,1.53h3.434v2.856H18.4a1.374,1.374,0,0,0-1.292,1.53A1.393,1.393,0,0,0,18.4,14.3H21.5a24.419,24.419,0,0,1-3.944,5.371,1.555,1.555,0,0,0-.51,1.156,1.532,1.532,0,0,0,1.5,1.5,1.821,1.821,0,0,0,1.36-.646,22.931,22.931,0,0,0,2.788-3.706l-0.1,4.692v2.856a1.5,1.5,0,0,0,1.7,1.326,1.5,1.5,0,0,0,1.7-1.326V22.659l-0.1-4.93a30.623,30.623,0,0,0,3.74,5.032,1.788,1.788,0,0,0,1.394.646,1.663,1.663,0,0,0,1.7-1.6A1.983,1.983,0,0,0,32,20.381,33.222,33.222,0,0,1,26.938,14.3h4.182ZM3.888,19.463C3.684,23.576,2.732,26.6.9,29.152a1.981,1.981,0,0,0-.442,1.156,1.665,1.665,0,0,0,1.734,1.564,1.949,1.949,0,0,0,1.564-.816c2.04-2.72,3.468-7.581,3.468-11.525a1.52,1.52,0,0,0-1.666-1.462A1.508,1.508,0,0,0,3.888,19.463Zm54.3-8.193c1.428,0,1.7.34,1.7,1.292a65.06,65.06,0,0,1-.918,11.593c-0.442,2.04-1.122,2.482-2.346,2.482a10.656,10.656,0,0,1-2.482-.272,2.409,2.409,0,0,0-.476-0.034,1.794,1.794,0,0,0-1.87,1.836,2,2,0,0,0,1.7,1.972,13.8,13.8,0,0,0,3.094.306c3.536,0,5.439-1.224,6.221-5.643a80.373,80.373,0,0,0,.884-12.851c0-2.822-1.428-4.114-5.032-4.08l-7.139.068c0.1-1.734.136-3.672,0.136-5.813a1.926,1.926,0,0,0-3.808,0c0,2.176-.034,4.114-0.136,5.847l-9.485.068a1.618,1.618,0,0,0-1.564,1.734,1.589,1.589,0,0,0,1.564,1.7l9.213-.1c-0.544,4.964-1.6,7.819-3.128,10.029a19.987,19.987,0,0,1-7.479,6.527,1.906,1.906,0,0,0-1.19,1.734,1.734,1.734,0,0,0,1.768,1.768,2.67,2.67,0,0,0,1.156-.306,24.088,24.088,0,0,0,8.975-7.751c1.9-2.788,3.162-6.187,3.74-12.035ZM77.531,28.608c2.516,0,3.74-.85,3.74-3.536V9.638c0-2.652-1.054-3.536-3.4-3.536H77.055c0.374-1.258.578-2.346,0.782-3.366a0.941,0.941,0,0,0,.034-0.306A1.583,1.583,0,0,0,76.137.969a1.726,1.726,0,0,0-1.8,1.5A32.274,32.274,0,0,1,73.52,6.1H73.35c-2.346,0-3.4.884-3.4,3.536V25.072c0,2.652,1.258,3.536,3.74,3.536h3.842Zm-3.2-3.2c-0.748,0-.918-0.306-0.918-1.02V18.307H77.8v6.085c0,0.816-.238,1.02-0.918,1.02h-2.55ZM77.8,15.247H73.418V10.182c0-.816.238-1.02,0.918-1.02h2.55c0.68,0,.918.2,0.918,1.02v5.065ZM88.818,7.36a38.882,38.882,0,0,0,1.394-4.42A2.339,2.339,0,0,0,90.28,2.5,1.826,1.826,0,0,0,88.342.8a1.794,1.794,0,0,0-1.8,1.394,33.6,33.6,0,0,1-4.046,9.859,2.1,2.1,0,0,0-.374,1.122,1.766,1.766,0,0,0,1.8,1.666,2.01,2.01,0,0,0,1.734-1.054,33.336,33.336,0,0,0,1.734-3.094h6.663c0.952,0,1.224.238,1.224,1.054a83.771,83.771,0,0,1-1.156,14.517c-0.238,1.19-.646,1.5-1.53,1.5a9.074,9.074,0,0,1-1.734-.2,1.525,1.525,0,0,0-.374-0.034,1.848,1.848,0,0,0-1.87,1.9,1.9,1.9,0,0,0,1.666,1.87,12.608,12.608,0,0,0,2.516.238c2.754,0,4.318-1.19,4.964-4.419A88.963,88.963,0,0,0,99.017,11.27c0-2.618-1.19-3.91-4.216-3.91H88.818ZM89.4,15.553a2.033,2.033,0,0,0-1.428-.646,1.808,1.808,0,0,0-1.87,1.666,1.735,1.735,0,0,0,.442,1.088,37.831,37.831,0,0,1,2.346,3.264,1.842,1.842,0,0,0,1.6.986,1.916,1.916,0,0,0,1.9-1.87,2.05,2.05,0,0,0-.34-1.122A20.992,20.992,0,0,0,89.4,15.553Zm35.224,10.3A21.086,21.086,0,0,1,128.5,28.03a2.162,2.162,0,0,0,1.155.408,1.873,1.873,0,0,0,1.8-1.87,1.91,1.91,0,0,0-.918-1.6,23.637,23.637,0,0,0-6.391-2.958,25.847,25.847,0,0,1-.476-4.42,19.7,19.7,0,0,1,.238-2.788c0-.1.034-0.17,0.034-0.272a1.714,1.714,0,0,0-1.9-1.564,1.659,1.659,0,0,0-1.768,1.36,18.458,18.458,0,0,0-.238,3.3,24.737,24.737,0,0,0,.34,3.6,15.146,15.146,0,0,0-1.7-.1c-4.352,0-6.664,2.244-6.664,4.964,0,3.162,2.448,4.93,6.494,4.93C121.764,31.022,124.552,29.662,124.62,25.854Zm-6.119,1.8c-2.21,0-2.89-.578-2.89-1.564,0-.918.748-1.666,3.128-1.666a11.99,11.99,0,0,1,2.141.2,6.828,6.828,0,0,1,.034.85C120.914,26.976,120.064,27.656,118.5,27.656ZM111.089,7.7c-1.734.17-3.433,0.272-4.963,0.34a1.659,1.659,0,0,0-1.632,1.768,1.739,1.739,0,0,0,1.768,1.87c1.054-.034,2.278-0.1,3.535-0.238a52.025,52.025,0,0,1-4.589,9.247,2.118,2.118,0,0,0-.374,1.19,1.859,1.859,0,0,0,1.9,1.8,2.248,2.248,0,0,0,1.9-1.224A62.528,62.528,0,0,0,113.877,11c1.666-.238,3.332-0.51,4.794-0.816a1.776,1.776,0,0,0-.238-3.536,1.525,1.525,0,0,0-.374.034c-0.952.17-1.972,0.34-2.992,0.51,0.374-1.36.714-2.72,0.986-4.012a1.938,1.938,0,0,0,.034-0.442,1.688,1.688,0,0,0-1.836-1.666,1.775,1.775,0,0,0-1.836,1.462C112.075,4.232,111.6,5.966,111.089,7.7Zm15.1-.408a2.311,2.311,0,0,0-.646-0.1A1.923,1.923,0,0,0,123.6,9.06a1.642,1.642,0,0,0,1.224,1.53,33.163,33.163,0,0,1,4.861,2.346,1.968,1.968,0,0,0,1.02.306,1.874,1.874,0,0,0,1.8-1.87A2.11,2.11,0,0,0,131.385,9.6,21.52,21.52,0,0,0,126.184,7.292Zm33.864,3.978V8.21h4.589A1.491,1.491,0,0,0,166.1,6.578a1.491,1.491,0,0,0-1.462-1.632h-4.589V2.057a1.62,1.62,0,0,0-1.8-1.564,1.638,1.638,0,0,0-1.8,1.564v2.89h-4.283A1.511,1.511,0,0,0,150.7,6.578a1.511,1.511,0,0,0,1.462,1.632h4.283v3.06h-6.051a1.511,1.511,0,0,0-1.462,1.632,1.512,1.512,0,0,0,1.462,1.632h9.485v3.3H150.9a1.511,1.511,0,0,0-1.462,1.632,1.522,1.522,0,0,0,1.462,1.666h8.975v6.459a0.72,0.72,0,0,1-.884.85,7.678,7.678,0,0,1-1.6-.17,1.4,1.4,0,0,0-.374-0.034,1.666,1.666,0,0,0-1.6,1.8,1.693,1.693,0,0,0,1.326,1.7,12.125,12.125,0,0,0,2.788.272c2.652,0,3.977-1.054,3.977-3.978v-6.9h3.06a1.491,1.491,0,0,0,1.462-1.632,1.5,1.5,0,0,0-1.462-1.666h-3.06v-3.3h3.536a1.491,1.491,0,0,0,1.462-1.632,1.491,1.491,0,0,0-1.462-1.632h-7ZM145.531,8.21V1.955a1.839,1.839,0,0,0-3.569,0V8.21H140.7c0.136-.714.272-1.428,0.34-2.108V5.932a1.4,1.4,0,0,0-1.5-1.394,1.374,1.374,0,0,0-1.462,1.19,32.742,32.742,0,0,1-1.7,6.867,1.886,1.886,0,0,0-.1.578,1.388,1.388,0,0,0,1.462,1.36,1.665,1.665,0,0,0,1.53-1.19c0.2-.544.442-1.19,0.646-1.87h2.04v6.255c-1.462.51-2.924,0.952-4.216,1.292a1.61,1.61,0,0,0-1.258,1.632,1.723,1.723,0,0,0,1.632,1.836,2.667,2.667,0,0,0,.476-0.068c0.986-.272,2.142-0.612,3.366-1.02v9.485a1.829,1.829,0,0,0,3.569,0V20.041c1.122-.476,2.176-0.952,3.128-1.428a1.643,1.643,0,0,0,.952-1.462,1.7,1.7,0,0,0-1.666-1.734,2.05,2.05,0,0,0-.816.2c-0.476.238-1.02,0.476-1.6,0.714V11.474h2.142A1.452,1.452,0,0,0,149,9.842a1.452,1.452,0,0,0-1.326-1.632h-2.142Zm8.907,14.313a2,2,0,0,0-1.258-.51,1.764,1.764,0,0,0-1.8,1.632,1.6,1.6,0,0,0,.442,1.088,20.737,20.737,0,0,1,1.733,2.074,1.605,1.605,0,0,0,1.326.714,1.9,1.9,0,0,0,1.87-1.8,1.744,1.744,0,0,0-.34-1.02A12.13,12.13,0,0,0,154.438,22.523Zm33.252-4.794h-3.5c0.136-.34.272-0.646,0.374-0.986a1.364,1.364,0,0,0,.1-0.51,1.644,1.644,0,0,0-1.768-1.5,1.615,1.615,0,0,0-1.6,1.122,24.053,24.053,0,0,1-2.992,5.915,1.847,1.847,0,0,0-.408,1.156,1.621,1.621,0,0,0,1.666,1.53,1.826,1.826,0,0,0,1.462-.782,30.064,30.064,0,0,0,1.87-3.026h4.793v2.21h-4.419a1.337,1.337,0,0,0-1.258,1.5,1.337,1.337,0,0,0,1.258,1.5h4.419v2.38h-9.145a1.374,1.374,0,0,0-1.292,1.53,1.393,1.393,0,0,0,1.292,1.53h21.928a1.371,1.371,0,0,0,1.292-1.53,1.354,1.354,0,0,0-1.292-1.53h-9.179v-2.38h5.2a1.362,1.362,0,0,0,1.291-1.5,1.362,1.362,0,0,0-1.291-1.5h-5.2v-2.21h7.173a1.33,1.33,0,0,0,1.292-1.462,1.313,1.313,0,0,0-1.292-1.462h-7.173V16.1a1.587,1.587,0,0,0-1.8-1.462,1.6,1.6,0,0,0-1.8,1.462v1.632ZM181.163,6.408a1.471,1.471,0,0,0-.816,1.258,1.63,1.63,0,0,0,.306.884c0.34,0.544.748,1.224,1.02,1.7a1.992,1.992,0,0,0,.442.578h-4.148c-3.127,0-4.351,1.258-4.351,3.774v3.808a23.693,23.693,0,0,1-2.346,10.675,1.81,1.81,0,0,0-.2.816,1.738,1.738,0,0,0,1.8,1.632,2.057,2.057,0,0,0,1.836-1.258,26.933,26.933,0,0,0,2.583-11.627v-3.5c0-.884.306-1.19,1.394-1.19H200.2a1.413,1.413,0,0,0,1.36-1.564,1.413,1.413,0,0,0-1.36-1.564h-7.649c0.442-.782.884-1.6,1.292-2.448a1.827,1.827,0,0,0,.17-0.714,1.437,1.437,0,0,0-.782-1.258h5.847a1.443,1.443,0,0,0,1.36-1.6,1.425,1.425,0,0,0-1.36-1.6H188.846V1.649a1.905,1.905,0,0,0-3.671,0V3.212H174.84a1.425,1.425,0,0,0-1.36,1.6,1.443,1.443,0,0,0,1.36,1.6h6.323Zm9.893,0a2.155,2.155,0,0,0-.68.85,38.545,38.545,0,0,1-1.768,3.57h-4.181a1.58,1.58,0,0,0,.68-1.258,1.821,1.821,0,0,0-.238-0.884,16.358,16.358,0,0,0-1.258-1.87,1.664,1.664,0,0,0-.442-0.408h7.887Zm33.8,7.241c2.618,0,4.522-.578,4.522-3.57v-4.9c0-2.448-1.258-3.57-4.522-3.57h-8.465c-3.264,0-4.522,1.122-4.522,3.57v4.9c0,2.448,1.258,3.57,4.522,3.57h8.465Zm-7.819-3.06c-0.884,0-1.5-.1-1.5-1.122V5.8c0-.816.272-1.122,1.5-1.122h7.173c1.224,0,1.5.306,1.5,1.122V9.468c0,0.816-.272,1.122-1.5,1.122h-7.173Zm-2.584,20.16c2.652,0,4.182-.85,4.182-3.706V20.551c0-2.584-1.292-3.706-4.182-3.706h-4.181c-2.89,0-4.182,1.122-4.182,3.706v6.493c0,2.584,1.292,3.706,4.182,3.706h4.181Zm-3.6-3.06a0.945,0.945,0,0,1-1.156-1.122V21.027a0.945,0.945,0,0,1,1.156-1.122h3.025a0.945,0.945,0,0,1,1.156,1.122v5.541a0.945,0.945,0,0,1-1.156,1.122h-3.025Zm20.125,3.06c2.652,0,4.182-.85,4.182-3.706V20.551c0-2.584-1.292-3.706-4.182-3.706h-4.589c-2.89,0-4.182,1.122-4.182,3.706v6.493c0,2.584,1.292,3.706,4.182,3.706h4.589Zm-4.011-3.06a0.945,0.945,0,0,1-1.156-1.122V21.027A0.945,0.945,0,0,1,226.96,19.9h3.434a0.945,0.945,0,0,1,1.155,1.122v5.541a0.945,0.945,0,0,1-1.155,1.122H226.96Zm13.976-13.6a1.686,1.686,0,0,0-1.6,1.87,1.7,1.7,0,0,0,1.6,1.87h27.333a1.684,1.684,0,0,0,1.6-1.87,1.666,1.666,0,0,0-1.6-1.87H240.936ZM294.79,26.84c2.346,0,3.74-.612,3.74-3.2V18.239c0-2.176-1.02-3.06-3.74-3.06H282.449c-2.72,0-3.739.884-3.739,3.06v5.473c0,2.244.883,3.128,3.6,3.128H283.2c-1.564,1.632-4.08,2.482-8.193,2.856a1.392,1.392,0,0,0-1.36,1.428,1.457,1.457,0,0,0,1.5,1.462h0.136a19.561,19.561,0,0,0,8.159-2.278,9,9,0,0,0,3.4-3.468h3.229v2.278c0,2.142.714,2.89,6.188,2.89,6.051,0,7.377-1.224,7.649-3.978V27.86a1.557,1.557,0,0,0-1.7-1.5,1.526,1.526,0,0,0-1.632,1.258c-0.2,1.36-.816,1.7-4.249,1.7-2.754,0-2.924-.136-2.924-0.816V26.84h1.394Zm-11.763-2.176c-0.816,0-.952-0.17-0.952-0.646V23.475h13.089v0.544c0,0.476-.136.646-0.952,0.646H283.027Zm-0.952-4.25h13.089V21.6H282.075v-1.19Zm13.089-1.87H282.075V18.069c0-.476.136-0.646,0.952-0.646h11.185c0.816,0,.952.17,0.952,0.646v0.476ZM283.4,11.78V10.488h1.564c2.21,0,2.822-.68,2.822-1.938V7.088c0-1.326-.612-2.04-2.822-2.04H283.4V3.756h4.454A1.087,1.087,0,0,0,288.942,2.6a1.078,1.078,0,0,0-1.087-1.122h-10.1c-2.822,0-3.706.952-3.706,2.89v6.9c0,1.9.884,2.856,3.706,2.856h9.757a1.1,1.1,0,0,0,1.088-1.19,1.088,1.088,0,0,0-1.088-1.156H283.4Zm-3.128,0H278.1c-0.646,0-.782-0.17-0.782-0.578V10.488h2.957V11.78Zm-2.957-3.3V7.054h6.867c0.442,0,.578.068,0.578,0.408V8.04c0,0.34-.136.442-0.578,0.442h-6.867Zm0-3.434V4.368c0-.442.136-0.612,0.782-0.612h2.175V5.048h-2.957Zm17.78-.374c0.272-.578.544-1.122,0.748-1.666a1.775,1.775,0,0,0,.136-0.714,1.616,1.616,0,0,0-1.734-1.53,1.7,1.7,0,0,0-1.666,1.088,22.835,22.835,0,0,1-3.3,5.847,1.816,1.816,0,0,0-.441,1.122,1.7,1.7,0,0,0,1.733,1.632A1.781,1.781,0,0,0,292,9.74c0.51-.646,1.02-1.394,1.5-2.142h9.315a1.307,1.307,0,0,0,1.258-1.462,1.325,1.325,0,0,0-1.258-1.462H295.1Zm5.881,8.057A1.321,1.321,0,0,0,302.2,11.27a1.3,1.3,0,0,0-1.224-1.462h-7.343a1.3,1.3,0,0,0-1.224,1.462,1.321,1.321,0,0,0,1.224,1.462h7.343Z"/>
</svg>
