<svg xmlns="http://www.w3.org/2000/svg" width="335" height="33" viewBox="0 0 335 33">
  <defs>
    <style>
      .cls-1 {
        fill: #5a4646;
        fill-rule: evenodd;
      }
    </style>
  </defs>
  <path id="ふるさと納税について" class="cls-1" d="M23.388,20.653a31.636,31.636,0,0,1,3.57,5.508,1.919,1.919,0,0,0,1.768,1.224,2.141,2.141,0,0,0,2.176-2.04,2.071,2.071,0,0,0-.238-0.952,26.237,26.237,0,0,0-4.148-5.915,2.212,2.212,0,0,0-1.632-.748A1.941,1.941,0,0,0,22.912,19.5,1.707,1.707,0,0,0,23.388,20.653ZM1.562,24.766A2.085,2.085,0,0,0,.542,26.5a2.04,2.04,0,0,0,3.264,1.6,29.411,29.411,0,0,0,5.983-5.337,2.184,2.184,0,0,0,.544-1.36,2.025,2.025,0,0,0-2.074-1.87,2.143,2.143,0,0,0-1.6.748A27.292,27.292,0,0,1,1.562,24.766ZM15.195,2.873a2.341,2.341,0,0,0-1.02-.238,2.081,2.081,0,0,0-2.142,1.972A1.816,1.816,0,0,0,13.121,6.17a38.348,38.348,0,0,1,5.337,3.57,2.16,2.16,0,0,0,1.292.51,2.032,2.032,0,0,0,1.972-2.04A2.285,2.285,0,0,0,20.8,6.442,30.54,30.54,0,0,0,15.195,2.873ZM11.9,15.383c0,1.428.612,2.856,2.686,4.725,1.7,1.5,2.278,2.788,2.278,4.284a1.706,1.706,0,0,1-1.836,1.972,9.117,9.117,0,0,1-1.9-.238,3.786,3.786,0,0,0-.578-0.068,1.813,1.813,0,0,0-1.87,1.836A1.952,1.952,0,0,0,12.3,29.8a13.383,13.383,0,0,0,2.856.34c3.162,0,5.677-1.9,5.677-5.745,0-2.346-.816-4.148-3.638-6.663-1.122-1.02-1.462-1.734-1.462-2.55a4.91,4.91,0,0,1,.51-2.074,1.5,1.5,0,0,0,.17-0.748,1.825,1.825,0,0,0-1.938-1.632,1.992,1.992,0,0,0-1.768,1.088A7.572,7.572,0,0,0,11.9,15.383ZM47.9,14.057a74.815,74.815,0,0,0,6.833-7.683,2.7,2.7,0,0,0,.612-1.6A2.207,2.207,0,0,0,53,2.635a2.245,2.245,0,0,0-.476.034c-3.264.51-6.867,0.952-9.621,1.088a1.7,1.7,0,0,0-1.666,1.768,1.734,1.734,0,0,0,1.7,1.836c0.442,0,1.326-.1,1.462-0.1,1.7-.136,3.91-0.374,5.575-0.646A76.5,76.5,0,0,1,38.486,18.1a2,2,0,0,0-.85,1.6,1.916,1.916,0,0,0,1.9,1.87,2.356,2.356,0,0,0,1.428-.544c4.182-3.23,7.513-4.42,10.947-4.42,3.264,0,5.168,1.938,5.168,4.352a5.827,5.827,0,0,1-3.3,5.541c-0.986-3.4-3.264-5.575-6.527-5.575-3.026,0-4.726,1.8-4.726,4.352,0,3.026,2.958,5.405,7.615,5.405,6.629,0,10.913-3.808,10.913-9.757,0-4.725-3.468-7.615-8.771-7.615a11.745,11.745,0,0,0-4.318.85Zm2.04,13.225c-2.686,0-3.978-.884-3.978-2.006a1.245,1.245,0,0,1,1.224-1.326c1.428,0,2.448,1.156,3.026,3.332H49.943Zm37.57-9.247a21.99,21.99,0,0,0-4.556-.442c-6.6,0-9.417,2.72-9.417,6.391,0,4.284,3.672,6.9,10.607,6.9a32.162,32.162,0,0,0,3.876-.2,1.8,1.8,0,0,0-.136-3.6H87.648c-1.088.1-2.176,0.17-3.57,0.17-5.065,0-6.6-1.292-6.6-3.23,0-1.87,1.394-3.128,5.508-3.128a23.066,23.066,0,0,1,7.853,1.292,2.676,2.676,0,0,0,.68.136,1.9,1.9,0,0,0,1.87-1.938,2.09,2.09,0,0,0-.578-1.428A36.156,36.156,0,0,1,87.24,11.3,57.808,57.808,0,0,0,93.7,9.57a1.81,1.81,0,0,0,1.394-1.7,1.849,1.849,0,0,0-1.836-1.836,1.889,1.889,0,0,0-.714.136A58.576,58.576,0,0,1,85.71,8.006a42.517,42.517,0,0,1-1.7-5.371,1.69,1.69,0,0,0-1.734-1.292,1.866,1.866,0,0,0-2.006,1.666,1.706,1.706,0,0,0,.068.408c0.476,1.734,1.088,3.5,1.768,5.269a84.4,84.4,0,0,1-9.247,1.02,1.619,1.619,0,0,0-1.632,1.7A1.775,1.775,0,0,0,73,13.276,84.182,84.182,0,0,0,83.6,12.018a28.714,28.714,0,0,0,3.944,5.949Zm26.045-2.856c-4.25,2.89-5.542,5.643-5.542,8.431,0,4.59,3.57,6.765,10.709,6.765a39.314,39.314,0,0,0,7.82-.646,1.871,1.871,0,0,0,1.529-1.9,1.791,1.791,0,0,0-1.835-1.87,2.091,2.091,0,0,0-.442.034,37.356,37.356,0,0,1-7.038.612c-5.405,0-6.8-1.088-6.8-3.2,0-1.734,1.02-3.6,3.944-5.507a40.069,40.069,0,0,1,8.941-3.944A1.672,1.672,0,0,0,126.1,12.29a1.851,1.851,0,0,0-1.768-1.9,1.925,1.925,0,0,0-.612.1,46.491,46.491,0,0,0-6.7,2.652,59.5,59.5,0,0,1-.782-9.961,1.977,1.977,0,0,0-3.944,0A54.154,54.154,0,0,0,113.557,15.179Zm49.264,12.1c0,0.816-.272.986-0.85,0.986a11.955,11.955,0,0,1-1.529-.1c-0.1,0-.2-0.034-0.272-0.034a1.617,1.617,0,0,0-1.6,1.7,1.709,1.709,0,0,0,1.53,1.734,11.95,11.95,0,0,0,2.107.17c2.72,0,4.08-1.156,4.08-3.944V10.9c0-2.72-1.156-3.842-4.284-3.842H159.32V2.193a1.8,1.8,0,0,0-3.536,0V7.054h-2.618c-3.127,0-4.283,1.122-4.283,3.842V30.58a1.558,1.558,0,0,0,1.734,1.428,1.539,1.539,0,0,0,1.733-1.428V21.843a1.524,1.524,0,0,0,1.36.884,2.064,2.064,0,0,0,1.632-1.02,19.146,19.146,0,0,0,2.142-4.08,33.445,33.445,0,0,1,2.244,3.3,1.848,1.848,0,0,0,1.53.952,1.687,1.687,0,0,0,1.563-.986v6.391Zm-1.189-17.1c0.951,0,1.189.238,1.189,0.986v8.363a2.574,2.574,0,0,0-.306-0.612,28.286,28.286,0,0,0-3.943-4.76,32.041,32.041,0,0,0,.578-3.978h2.482Zm-9.282.986c0-.748.238-0.986,1.19-0.986h2.176a18.182,18.182,0,0,1-3.094,9.689,3.4,3.4,0,0,0-.272.476V11.168Zm-11.9,19.922a1.742,1.742,0,0,0,3.365,0V18.1c0.612-.1,1.224-0.17,1.836-0.272,0.068,0.17.1,0.374,0.17,0.544a1.334,1.334,0,0,0,1.326.952,1.474,1.474,0,0,0,1.53-1.394,1.69,1.69,0,0,0-.1-0.544,20.959,20.959,0,0,0-2.04-4.318,1.4,1.4,0,0,0-1.224-.714,1.384,1.384,0,0,0-1.428,1.224,1.38,1.38,0,0,0,.17.578c0.136,0.272.272,0.544,0.442,0.816-0.884.1-1.734,0.17-2.617,0.238A70.032,70.032,0,0,0,146.4,7.7a1.38,1.38,0,0,0,.17-0.714,1.612,1.612,0,0,0-1.666-1.462,1.493,1.493,0,0,0-1.394.884c-0.442.918-.952,1.938-1.53,2.992-0.339-.374-0.645-0.748-0.985-1.156A35.036,35.036,0,0,0,143.681,2.8a1.925,1.925,0,0,0,.1-0.612,1.673,1.673,0,0,0-3.195-.408,30.144,30.144,0,0,1-1.836,4.148,1.633,1.633,0,0,0-1.02-.408,1.575,1.575,0,0,0-1.564,1.53,1.525,1.525,0,0,0,.442,1.054,49.557,49.557,0,0,1,3.74,4.148c-0.68,1.088-1.326,2.142-2.04,3.2-0.476,0-.918.034-1.36,0.034a1.419,1.419,0,0,0-1.394,1.564,1.445,1.445,0,0,0,1.462,1.6c1.088-.034,2.244-0.1,3.434-0.2V31.09Zm6.459-10.267a1.269,1.269,0,0,0-1.224-.918,1.317,1.317,0,0,0-1.36,1.224,0.941,0.941,0,0,0,.034.306,30.217,30.217,0,0,1,.986,4.692,1.256,1.256,0,0,0,1.326,1.088,1.321,1.321,0,0,0,1.394-1.326V25.65A27.656,27.656,0,0,0,146.911,20.823Zm-9.689.578a24.016,24.016,0,0,1-1.36,5.813,1.885,1.885,0,0,0-.1.578,1.336,1.336,0,0,0,1.394,1.292,1.461,1.461,0,0,0,1.394-.986,25.386,25.386,0,0,0,1.428-6.425v-0.1a1.306,1.306,0,0,0-1.394-1.258A1.267,1.267,0,0,0,137.222,21.4Zm54.7-2.346v9.383c0,2.414,1.156,3.06,4.385,3.06,3.638,0,4.794-1.02,5.2-4.9v-0.17a1.584,1.584,0,0,0-1.7-1.53,1.472,1.472,0,0,0-1.53,1.326c-0.238,1.9-.646,2.108-1.734,2.108-0.917,0-1.189-.17-1.189-0.714V19.055c2.515-.068,3.943-0.646,3.943-3.366V11.44c0-2.006-.748-3.434-3.875-3.434A31.112,31.112,0,0,0,197.6,3.212a1.925,1.925,0,0,0,.1-0.612A1.794,1.794,0,0,0,195.768,1a1.7,1.7,0,0,0-1.7,1.156,37.409,37.409,0,0,1-2.516,5.847h-3.774c-3.263,0-4.215,1.088-4.215,3.434v4.249c0,2.312.986,3.162,3.263,3.332-0.408,4.522-2.311,7.513-5.847,9.587a1.857,1.857,0,0,0-1.054,1.6,1.757,1.757,0,0,0,1.734,1.7,2.014,2.014,0,0,0,.918-0.272c4.453-2.55,7.207-6.731,7.683-12.579h1.666Zm-3.5-3.06c-1.02,0-1.36-.238-1.36-1.088V12.052c0-.68.272-0.986,1.36-0.986h6.018c1.088,0,1.36.306,1.36,0.986v2.856c0,0.782-.272,1.088-1.36,1.088h-6.018ZM174.656,27.248V30.92a1.746,1.746,0,0,0,3.433,0V18.579c0.476,0.544.918,1.054,1.292,1.53a1.479,1.479,0,0,0,1.19.612,1.569,1.569,0,0,0,1.564-1.5,1.735,1.735,0,0,0-.442-1.088,19.608,19.608,0,0,0-3.6-3.3V12.6h2.584a1.437,1.437,0,0,0,1.292-1.6,1.418,1.418,0,0,0-1.292-1.6h-2.584V5.422c0.884-.306,1.768-0.612,2.652-0.986a1.577,1.577,0,0,0,.986-1.462,1.736,1.736,0,0,0-1.632-1.8,2.145,2.145,0,0,0-.748.17,39.406,39.406,0,0,1-7.683,2.278,1.5,1.5,0,0,0-1.292,1.564,1.545,1.545,0,0,0,1.53,1.632c0.068,0,.17-0.034.272-0.034,0.816-.136,1.632-0.272,2.482-0.442V9.4H171.12a1.416,1.416,0,0,0-1.258,1.6,1.437,1.437,0,0,0,1.292,1.6h3.2a36.075,36.075,0,0,1-4.658,10.369,1.645,1.645,0,0,0-.306.918,1.5,1.5,0,0,0,1.5,1.462,1.677,1.677,0,0,0,1.394-.85,25.717,25.717,0,0,0,2.516-4.692ZM188.288,2.057a1.915,1.915,0,0,0-1.564-.782,1.7,1.7,0,0,0-1.8,1.53,1.568,1.568,0,0,0,.272.884c0.476,0.748,1.121,1.87,1.529,2.652a1.517,1.517,0,0,0,1.428.918A1.906,1.906,0,0,0,190.09,5.49a1.786,1.786,0,0,0-.2-0.782A21.961,21.961,0,0,0,188.288,2.057Zm20.334,2.788a76.632,76.632,0,0,0-1.6,15.706,74.054,74.054,0,0,0,.578,8.4,1.879,1.879,0,0,0,1.972,1.666,1.851,1.851,0,0,0,1.971-1.8c0-.068-0.034-0.17-0.034-0.272a71.084,71.084,0,0,1-.612-7.989,71.018,71.018,0,0,1,1.564-15.026A1.524,1.524,0,0,0,212.5,5.15a1.8,1.8,0,0,0-1.972-1.734A1.825,1.825,0,0,0,208.622,4.844Zm20.6,1.564a82.63,82.63,0,0,1-9.349.748,1.8,1.8,0,0,0-1.836,1.836,1.787,1.787,0,0,0,1.971,1.836,86.286,86.286,0,0,0,9.588-.748,1.864,1.864,0,0,0,1.733-1.87,1.757,1.757,0,0,0-1.835-1.8h-0.272ZM220.35,21.435a1.659,1.659,0,0,0-1.733-1.462,1.892,1.892,0,0,0-1.972,1.9v0.17c0.374,4.114,2.992,6.017,9.281,6.017a29.7,29.7,0,0,0,5.881-.578,1.764,1.764,0,0,0,1.5-1.8,1.812,1.812,0,0,0-1.8-1.9,1.655,1.655,0,0,0-.408.034,27.9,27.9,0,0,1-5.133.51C221.71,24.324,220.656,23.542,220.35,21.435ZM240.344,11.3a2.059,2.059,0,0,0-1.394,1.87,1.872,1.872,0,0,0,1.9,1.87,2.694,2.694,0,0,0,.986-0.2c6.085-2.686,11.491-4.046,15.74-4.046,4.216,0,6.188,2.244,6.188,4.862,0,4.488-2.788,7.241-10.743,8.6a1.906,1.906,0,0,0-1.7,1.87,1.857,1.857,0,0,0,1.87,1.938,1.655,1.655,0,0,0,.408-0.034c9.349-1.326,14.176-5.881,14.176-12.375,0-5.2-4.113-8.465-10.2-8.465C252.685,7.19,246.463,8.652,240.344,11.3Zm34.068-4.828c-0.068.884-.136,1.9-0.136,3.468,0,12.919,2.992,19,7.921,19,2.278,0,4.454-1.666,5.711-6.221a1.683,1.683,0,0,0,.068-0.578,1.87,1.87,0,0,0-1.937-1.836,1.77,1.77,0,0,0-1.734,1.462c-0.646,2.55-1.394,3.094-2.21,3.094-1.428,0-3.842-3.128-3.842-15.026,0-1.054.136-2.72,0.136-3.2a1.84,1.84,0,0,0-2-1.8A1.862,1.862,0,0,0,274.412,6.476Zm21.01,2.414a2.244,2.244,0,0,0-1.5-.646,1.881,1.881,0,0,0-1.938,1.734,1.779,1.779,0,0,0,.578,1.258,30.037,30.037,0,0,1,5.881,9.247,1.872,1.872,0,0,0,1.8,1.292,1.834,1.834,0,0,0,1.9-1.8,2.013,2.013,0,0,0-.136-0.714A26.841,26.841,0,0,0,295.422,8.89Zm28.628,0A13.708,13.708,0,0,0,318.475,19.5c0,5.235,3.6,8.975,8.635,10.233a17.741,17.741,0,0,0,2.516.34,2.01,2.01,0,0,0,.17-4.012c-4.76-.578-7.378-2.89-7.378-6.663,0-3.23,1.122-6.765,6.426-9.791a11.642,11.642,0,0,1,3.739-1.36,1.836,1.836,0,0,0,1.564-1.836,1.757,1.757,0,0,0-1.836-1.8h-0.2c-7.071.646-15.842,1.632-22.913,2.516a1.848,1.848,0,0,0-1.768,1.87,1.883,1.883,0,0,0,1.9,1.938,1.275,1.275,0,0,0,.34-0.034c4.895-.714,10.3-1.53,14.38-2.074V8.89Z"/>
</svg>
