<svg xmlns="http://www.w3.org/2000/svg" width="167" height="33" viewBox="0 0 167 33">
  <defs>
    <style>
      .cls-1 {
        fill: #5a4646;
        fill-rule: evenodd;
      }
    </style>
  </defs>
  <path id="生産者の声" class="cls-1" d="M17.914,8.38V1.751a1.687,1.687,0,0,0-1.9-1.5,1.687,1.687,0,0,0-1.9,1.5V8.38H8.055a33.4,33.4,0,0,0,1.02-3.468A2.34,2.34,0,0,0,9.143,4.47a1.826,1.826,0,0,0-1.938-1.7A1.857,1.857,0,0,0,5.37,4.164a44.546,44.546,0,0,1-4.9,11.729,2.135,2.135,0,0,0-.34,1.122A1.754,1.754,0,0,0,1.97,18.681a2.168,2.168,0,0,0,1.836-1.122A39.851,39.851,0,0,0,6.763,11.78h7.343v5.44H6.933a1.5,1.5,0,0,0-1.428,1.666,1.515,1.515,0,0,0,1.428,1.666h7.173v6.6H2A1.539,1.539,0,0,0,.576,28.88,1.558,1.558,0,0,0,2,30.614H29.677a1.561,1.561,0,0,0,1.462-1.734,1.543,1.543,0,0,0-1.462-1.734H17.914v-6.6h7.751a1.52,1.52,0,0,0,1.462-1.666,1.5,1.5,0,0,0-1.462-1.666H17.914V11.78h9.859a1.531,1.531,0,0,0,1.462-1.7,1.531,1.531,0,0,0-1.462-1.7H17.914ZM50.69,17.729h-3.5c0.136-.34.272-0.646,0.374-0.986a1.364,1.364,0,0,0,.1-0.51,1.643,1.643,0,0,0-1.768-1.5,1.615,1.615,0,0,0-1.6,1.122,24.056,24.056,0,0,1-2.992,5.915,1.847,1.847,0,0,0-.408,1.156,1.621,1.621,0,0,0,1.666,1.53,1.826,1.826,0,0,0,1.462-.782,30.063,30.063,0,0,0,1.87-3.026H50.69v2.21H46.271a1.337,1.337,0,0,0-1.258,1.5,1.337,1.337,0,0,0,1.258,1.5H50.69v2.38H41.545a1.374,1.374,0,0,0-1.292,1.53,1.393,1.393,0,0,0,1.292,1.53H63.473a1.371,1.371,0,0,0,1.292-1.53,1.354,1.354,0,0,0-1.292-1.53H54.294v-2.38h5.2a1.362,1.362,0,0,0,1.292-1.5,1.362,1.362,0,0,0-1.292-1.5h-5.2v-2.21h7.173a1.33,1.33,0,0,0,1.292-1.462,1.313,1.313,0,0,0-1.292-1.462H54.294V16.1a1.587,1.587,0,0,0-1.8-1.462,1.6,1.6,0,0,0-1.8,1.462v1.632ZM44.163,6.408a1.471,1.471,0,0,0-.816,1.258,1.63,1.63,0,0,0,.306.884c0.34,0.544.748,1.224,1.02,1.7a1.992,1.992,0,0,0,.442.578H40.967c-3.128,0-4.352,1.258-4.352,3.774v3.808A23.7,23.7,0,0,1,34.27,29.084a1.81,1.81,0,0,0-.2.816,1.738,1.738,0,0,0,1.8,1.632A2.056,2.056,0,0,0,37.7,30.274a26.935,26.935,0,0,0,2.584-11.627v-3.5c0-.884.306-1.19,1.394-1.19H63.2a1.413,1.413,0,0,0,1.36-1.564,1.413,1.413,0,0,0-1.36-1.564H55.552c0.442-.782.884-1.6,1.292-2.448a1.827,1.827,0,0,0,.17-0.714,1.437,1.437,0,0,0-.782-1.258h5.847a1.443,1.443,0,0,0,1.36-1.6,1.425,1.425,0,0,0-1.36-1.6H51.846V1.649A1.592,1.592,0,0,0,50.011.255a1.592,1.592,0,0,0-1.836,1.394V3.212H37.84a1.425,1.425,0,0,0-1.36,1.6,1.443,1.443,0,0,0,1.36,1.6h6.323Zm9.893,0a2.154,2.154,0,0,0-.68.85,38.544,38.544,0,0,1-1.768,3.57H47.427a1.58,1.58,0,0,0,.68-1.258,1.821,1.821,0,0,0-.238-0.884,16.357,16.357,0,0,0-1.258-1.87,1.664,1.664,0,0,0-.442-0.408h7.887ZM81.291,17.389a61.7,61.7,0,0,0,5.235-3.57H97.575a1.517,1.517,0,0,0,1.5-1.632,1.507,1.507,0,0,0-1.5-1.6H90.4a50.317,50.317,0,0,0,5.066-5.44,1.992,1.992,0,0,0,.442-1.19,1.775,1.775,0,0,0-1.836-1.666,1.9,1.9,0,0,0-1.53.782c-0.884,1.156-1.8,2.278-2.788,3.332A1.655,1.655,0,0,0,89.79,6,1.439,1.439,0,0,0,88.4,4.436H84.385V1.683a1.905,1.905,0,0,0-3.706,0V4.436H73.336A1.472,1.472,0,0,0,71.874,6a1.472,1.472,0,0,0,1.462,1.564h7.343V10.59H69.6a1.48,1.48,0,0,0-1.462,1.6A1.491,1.491,0,0,0,69.6,13.819H81.087a60.921,60.921,0,0,1-12,6.255,1.845,1.845,0,0,0-1.292,1.7,1.711,1.711,0,0,0,1.7,1.734,1.95,1.95,0,0,0,.816-0.17c2.006-.816,4.012-1.734,5.949-2.754a2.925,2.925,0,0,0-.034.544v6.629c0,2.482,1.292,3.774,4.555,3.774H90.47c2.72,0,4.556-.748,4.556-3.774V21.129c0-2.448-1.258-3.74-4.556-3.74H81.291Zm3.094-6.8V7.564H88.4a0.749,0.749,0,0,0,.272-0.034,40.378,40.378,0,0,1-3.332,3.06H84.385ZM81.291,28.642c-0.884,0-1.462-.068-1.462-1.088v-1.8H91.422v1.8c0,0.816-.306,1.088-1.5,1.088H81.291Zm10.131-5.677H79.829V21.333c0-.816.272-1.088,1.462-1.088h8.635c1.19,0,1.5.272,1.5,1.088v1.632Zm18.055,3.978c2.618,0,4.624-.986,6.494-4.284A34.027,34.027,0,0,0,119.812,8.21c5.168,0.374,8.193,4.046,8.193,8.5,0,4.216-1.937,7.139-6.765,8.873a1.958,1.958,0,0,0-1.428,1.87,1.906,1.906,0,0,0,1.9,1.938,2.231,2.231,0,0,0,.782-0.136c5.847-1.87,9.485-6.391,9.485-12.545,0-6.765-4.793-11.967-13.089-11.967-9.349,0-15.774,6.357-15.774,14.109C103.12,24.154,106.01,26.942,109.477,26.942Zm6.358-18.494a30.748,30.748,0,0,1-3.4,12.409c-0.986,1.734-1.9,2.278-2.958,2.278-1.224,0-2.447-1.156-2.447-4.284A10.769,10.769,0,0,1,115.835,8.448Zm33.864-5.1H138a1.374,1.374,0,0,0-1.292,1.53A1.393,1.393,0,0,0,138,6.408h11.7V8.414h-8.941a1.35,1.35,0,0,0-1.258,1.53,1.368,1.368,0,0,0,1.258,1.53h21.553a1.393,1.393,0,0,0,1.292-1.53,1.374,1.374,0,0,0-1.292-1.53H153.37V6.408H165.3a1.4,1.4,0,0,0,1.326-1.53,1.379,1.379,0,0,0-1.326-1.53H153.37V1.581a1.894,1.894,0,0,0-3.671,0V3.348Zm10.4,18.9c2.277,0,3.773-.544,3.773-3.094V16.505c0-2.21-1.122-3.094-3.773-3.094H144.225c-3.059,0-4.079,1.054-4.079,3.332v2.21a15.718,15.718,0,0,1-3.6,10.505A2.1,2.1,0,0,0,136,30.784a1.845,1.845,0,0,0,1.87,1.768,2.288,2.288,0,0,0,1.8-.952,19.185,19.185,0,0,0,3.977-9.349H160.1Zm-10.131-5.915v2.992h-6.086v-2.04a0.809,0.809,0,0,1,.986-0.952h5.1Zm3.6,0h5.746c0.612,0,.816.17,0.816,0.714v1.564c0,0.544-.2.714-0.816,0.714h-5.746V16.335Z"/>
</svg>
