<svg xmlns="http://www.w3.org/2000/svg" width="234" height="33" viewBox="0 0 234 33">
  <defs>
    <style>
      .cls-1 {
        fill: #5a4646;
        fill-rule: evenodd;
      }
    </style>
  </defs>
  <path id="都城市について" class="cls-1" d="M5.554,27.962c0,2.346,1.258,3.5,4.08,3.5h4.624c2.448,0,4.08-.816,4.08-3.5V19.939c0-2.346-1.258-3.5-4.08-3.5H10.823c0.918-.952,1.768-1.938,2.618-2.958h5.236A1.409,1.409,0,0,0,20,11.916a1.409,1.409,0,0,0-1.326-1.564H15.889A47.6,47.6,0,0,0,19.56,4.334a1.81,1.81,0,0,0,.2-0.816,1.78,1.78,0,0,0-1.87-1.632,1.691,1.691,0,0,0-1.564,1.02c-0.544,1.156-1.156,2.278-1.8,3.4V6.068A1.409,1.409,0,0,0,13.2,4.5H10.925V1.819A1.574,1.574,0,0,0,9.157.357,1.574,1.574,0,0,0,7.389,1.819V4.5H4.058A1.409,1.409,0,0,0,2.732,6.068,1.409,1.409,0,0,0,4.058,7.632H7.389v2.72H1.984A1.409,1.409,0,0,0,.658,11.916,1.409,1.409,0,0,0,1.984,13.48H9.157a47.435,47.435,0,0,1-7.785,6.9,1.778,1.778,0,0,0-.816,1.462,1.654,1.654,0,0,0,1.6,1.666,1.649,1.649,0,0,0,1.02-.374c0.816-.578,1.6-1.19,2.38-1.836v6.663Zm4.59,0.442c-0.714,0-1.088-.17-1.088-0.952V25.276h5.779v2.176c0,0.68-.238.952-1.088,0.952h-3.6Zm4.692-6.051H9.055v-1.9c0-.68.238-0.952,1.088-0.952h3.6c0.85,0,1.088.272,1.088,0.952v1.9Zm-3.91-12V7.632H13.2A1.117,1.117,0,0,0,13.781,7.5c-0.646.986-1.326,1.938-2.006,2.856h-0.85ZM24.592,2.023c-2.618,0-3.5,1.054-3.5,3.366v25.5a1.559,1.559,0,0,0,1.8,1.36,1.545,1.545,0,0,0,1.768-1.36V6.2c0-.68.17-0.918,0.816-0.918h1.666c0.51,0,.714.136,0.714,0.51a2.339,2.339,0,0,1-.068.442,34.028,34.028,0,0,1-1.87,6.017,3.891,3.891,0,0,0-.34,1.5,2.284,2.284,0,0,0,.68,1.666,9.831,9.831,0,0,1,2.72,6.153c0,1.8-.544,2.244-1.19,2.244-0.306,0-.544-0.068-0.918-0.1h-0.2a1.574,1.574,0,0,0-1.462,1.7,1.613,1.613,0,0,0,1.326,1.7,7.678,7.678,0,0,0,1.6.17c2.686,0,4.386-1.7,4.386-5.677,0-2.652-.952-5.2-3.5-7.921a62.253,62.253,0,0,0,2.414-7.241,7,7,0,0,0,.238-1.564c0-1.8-1.19-2.856-3.672-2.856h-3.4Zm26.215,15.2c0.816,0,.986.17,0.986,0.884a22.857,22.857,0,0,1-.238,3.6c-0.1.816-.272,0.986-0.782,0.986a4.124,4.124,0,0,1-.612-0.034h-0.17a1.468,1.468,0,0,0-1.36,1.6,1.5,1.5,0,0,0,1.326,1.564,8.271,8.271,0,0,0,1.292.1c1.9,0,3.23-1.088,3.6-3.978a42.33,42.33,0,0,0,.272-4.963c0-1.938-.884-2.89-3.638-2.89H49.311V11.644a0.978,0.978,0,0,1,1.19-1.122h5.27a83.557,83.557,0,0,0,1.394,12.1c0.034,0.2.1,0.408,0.136,0.578a21.405,21.405,0,0,1-6.527,5.473,1.744,1.744,0,0,0-1.02,1.5A1.662,1.662,0,0,0,51.418,31.8a2.273,2.273,0,0,0,.986-0.272,23.92,23.92,0,0,0,5.95-4.623c1.326,3.6,2.924,4.929,4.861,4.929a2.908,2.908,0,0,0,2.652-1.7,11.214,11.214,0,0,0,1.054-4.657,1.528,1.528,0,0,0-3.026-.136c-0.17,2.312-.578,2.618-0.884,2.618-0.578,0-1.224-1.156-2.04-4.284a30.691,30.691,0,0,0,4.114-9.145,1.886,1.886,0,0,0,.1-0.578,1.675,1.675,0,0,0-1.768-1.6,1.627,1.627,0,0,0-1.666,1.292,27.582,27.582,0,0,1-1.768,5.134c-0.272-1.768-.442-3.6-0.578-5.371-0.068-.986-0.136-1.938-0.17-2.89h5.711A1.428,1.428,0,0,0,66.241,8.89a1.428,1.428,0,0,0-1.292-1.632H59.1c-0.034-1.666-.068-3.4-0.068-5.167A1.574,1.574,0,0,0,57.3.561a1.592,1.592,0,0,0-1.734,1.53c0,1.768.034,3.468,0.068,5.167H50.093c-3.128,0-4.182,1.36-4.182,3.774v5.031a29.819,29.819,0,0,1-.374,4.794,1.577,1.577,0,0,0-1.5-1.462,1.816,1.816,0,0,0-.68.17c-0.442.2-.884,0.408-1.326,0.578V12.562h1.632a1.481,1.481,0,0,0,1.394-1.632A1.481,1.481,0,0,0,43.667,9.3H42.035V2.6a1.57,1.57,0,0,0-1.768-1.428A1.571,1.571,0,0,0,38.5,2.6V9.3H36.426a1.477,1.477,0,0,0-1.36,1.632,1.477,1.477,0,0,0,1.36,1.632H38.5V21.5c-0.918.306-1.8,0.612-2.652,0.85a1.562,1.562,0,0,0-1.19,1.53,1.741,1.741,0,0,0,1.666,1.8,1.886,1.886,0,0,0,.578-0.1,51.58,51.58,0,0,0,7.751-3.162,1.571,1.571,0,0,0,.68-0.646A17,17,0,0,1,41.9,29.016a1.832,1.832,0,0,0-.442,1.156,1.734,1.734,0,0,0,1.7,1.734,2.1,2.1,0,0,0,1.632-.918c2.958-3.774,4.352-8.091,4.488-13.769h1.53ZM62.773,2.091a1.724,1.724,0,0,0-1.19-.476A1.533,1.533,0,0,0,60.02,3.009a1.34,1.34,0,0,0,.374.918A15.105,15.105,0,0,1,61.821,5.8a1.4,1.4,0,0,0,1.224.68,1.647,1.647,0,0,0,1.632-1.6A1.828,1.828,0,0,0,64.3,3.79,10.177,10.177,0,0,0,62.773,2.091ZM86.3,12.766V10.59a1.592,1.592,0,0,0-1.836-1.36c-0.952,0-1.87.442-1.87,1.36v2.176H77.191c-3.23,0-4.488,1.258-4.488,3.774V27.384a1.934,1.934,0,0,0,3.672,0v-10.3c0-.85.306-1.19,1.564-1.19H82.6V30.92a1.942,1.942,0,0,0,3.706,0V15.893h5.066c1.258,0,1.564.34,1.564,1.19v7.173a0.663,0.663,0,0,1-.782.816,9.343,9.343,0,0,1-1.292-.1c-0.1,0-.2-0.034-0.272-0.034a1.677,1.677,0,0,0-.306,3.3,11.824,11.824,0,0,0,2.414.2c2.55,0,3.91-1.02,3.91-3.74V16.539c0-2.516-1.258-3.774-4.488-3.774H86.3ZM82.6,5.252H70.222a1.485,1.485,0,0,0-1.428,1.632,1.485,1.485,0,0,0,1.428,1.632H99.051a1.485,1.485,0,0,0,1.428-1.632,1.485,1.485,0,0,0-1.428-1.632H86.336V2.193A1.655,1.655,0,0,0,84.467.7a1.674,1.674,0,0,0-1.87,1.5v3.06Zm25.025-.408a76.632,76.632,0,0,0-1.6,15.706,74.054,74.054,0,0,0,.578,8.4,1.879,1.879,0,0,0,1.972,1.666,1.851,1.851,0,0,0,1.971-1.8c0-.068-0.034-0.17-0.034-0.272a71.084,71.084,0,0,1-.612-7.989,71.018,71.018,0,0,1,1.564-15.026A1.524,1.524,0,0,0,111.5,5.15a1.8,1.8,0,0,0-1.972-1.734A1.825,1.825,0,0,0,107.622,4.844Zm20.6,1.564a82.63,82.63,0,0,1-9.349.748,1.8,1.8,0,0,0-1.836,1.836,1.787,1.787,0,0,0,1.971,1.836,86.286,86.286,0,0,0,9.588-.748,1.864,1.864,0,0,0,1.733-1.87,1.757,1.757,0,0,0-1.835-1.8h-0.272ZM119.35,21.435a1.659,1.659,0,0,0-1.733-1.462,1.892,1.892,0,0,0-1.972,1.9v0.17c0.374,4.114,2.992,6.017,9.281,6.017a29.7,29.7,0,0,0,5.881-.578,1.764,1.764,0,0,0,1.5-1.8,1.812,1.812,0,0,0-1.8-1.9,1.655,1.655,0,0,0-.408.034,27.9,27.9,0,0,1-5.133.51C120.71,24.324,119.656,23.542,119.35,21.435ZM139.344,11.3a2.059,2.059,0,0,0-1.394,1.87,1.872,1.872,0,0,0,1.9,1.87,2.694,2.694,0,0,0,.986-0.2c6.085-2.686,11.491-4.046,15.74-4.046,4.216,0,6.188,2.244,6.188,4.862,0,4.488-2.788,7.241-10.743,8.6a1.906,1.906,0,0,0-1.7,1.87,1.857,1.857,0,0,0,1.87,1.938,1.655,1.655,0,0,0,.408-0.034c9.349-1.326,14.176-5.881,14.176-12.375,0-5.2-4.113-8.465-10.2-8.465C151.685,7.19,145.463,8.652,139.344,11.3Zm34.068-4.828c-0.068.884-.136,1.9-0.136,3.468,0,12.919,2.992,19,7.921,19,2.278,0,4.454-1.666,5.711-6.221a1.683,1.683,0,0,0,.068-0.578,1.87,1.87,0,0,0-1.937-1.836,1.77,1.77,0,0,0-1.734,1.462c-0.646,2.55-1.394,3.094-2.21,3.094-1.428,0-3.842-3.128-3.842-15.026,0-1.054.136-2.72,0.136-3.2a1.84,1.84,0,0,0-2.005-1.8A1.862,1.862,0,0,0,173.412,6.476Zm21.01,2.414a2.244,2.244,0,0,0-1.5-.646,1.881,1.881,0,0,0-1.938,1.734,1.779,1.779,0,0,0,.578,1.258,30.037,30.037,0,0,1,5.881,9.247,1.872,1.872,0,0,0,1.8,1.292,1.834,1.834,0,0,0,1.9-1.8,2.013,2.013,0,0,0-.136-0.714A26.841,26.841,0,0,0,194.422,8.89Zm28.628,0A13.708,13.708,0,0,0,217.475,19.5c0,5.235,3.6,8.975,8.635,10.233a17.741,17.741,0,0,0,2.516.34,2.01,2.01,0,0,0,.17-4.012c-4.76-.578-7.378-2.89-7.378-6.663,0-3.23,1.122-6.765,6.426-9.791a11.642,11.642,0,0,1,3.739-1.36,1.836,1.836,0,0,0,1.564-1.836,1.757,1.757,0,0,0-1.836-1.8h-0.2c-7.071.646-15.842,1.632-22.913,2.516a1.848,1.848,0,0,0-1.768,1.87,1.883,1.883,0,0,0,1.9,1.938,1.275,1.275,0,0,0,.34-0.034c4.9-.714,10.3-1.53,14.38-2.074V8.89Z"/>
</svg>
